<?xml version="1.0" encoding="utf-8" standalone="no"?>
<!DOCTYPE svg PUBLIC "-//W3C//DTD SVG 1.1//EN"
  "http://www.w3.org/Graphics/SVG/1.1/DTD/svg11.dtd">
<svg xmlns:xlink="http://www.w3.org/1999/xlink" width="856.46125pt" height="999.034375pt" viewBox="0 0 856.46125 999.034375" xmlns="http://www.w3.org/2000/svg" version="1.1">
 <metadata>
  <rdf:RDF xmlns:dc="http://purl.org/dc/elements/1.1/" xmlns:cc="http://creativecommons.org/ns#" xmlns:rdf="http://www.w3.org/1999/02/22-rdf-syntax-ns#">
   <cc:Work>
    <dc:type rdf:resource="http://purl.org/dc/dcmitype/StillImage"/>
    <dc:date>2026-04-26T00:04:50.351189</dc:date>
    <dc:format>image/svg+xml</dc:format>
    <dc:creator>
     <cc:Agent>
      <dc:title>Matplotlib v3.10.9, https://matplotlib.org/</dc:title>
     </cc:Agent>
    </dc:creator>
   </cc:Work>
  </rdf:RDF>
 </metadata>
 <defs>
  <style type="text/css">*{stroke-linejoin: round; stroke-linecap: butt}</style>
 </defs>
 <g id="figure_1">
  <g id="patch_1">
   <path d="M 0 999.034375 
L 856.46125 999.034375 
L 856.46125 0 
L 0 0 
z
" style="fill: #ffffff"/>
  </g>
  <g id="axes_1">
   <g id="patch_2">
    <path d="M 43.78125 243.530617 
L 849.26125 243.530617 
L 849.26125 22.318125 
L 43.78125 22.318125 
z
" style="fill: #ffffff"/>
   </g>
   <g id="matplotlib.axis_1">
    <g id="xtick_1">
     <g id="line2d_1">
      <path d="M 56.772863 243.530617 
L 56.772863 22.318125 
" clip-path="url(#p4939e6f29b)" style="fill: none; stroke: #b0b0b0; stroke-opacity: 0.3; stroke-width: 0.8; stroke-linecap: square"/>
     </g>
     <g id="line2d_2">
      <defs>
       <path id="m3a2ddd8515" d="M 0 0 
L 0 3.5 
" style="stroke: #000000; stroke-width: 0.8"/>
      </defs>
      <g>
       <use xlink:href="#m3a2ddd8515" x="56.772863" y="243.530617" style="stroke: #000000; stroke-width: 0.8"/>
      </g>
     </g>
    </g>
    <g id="xtick_2">
     <g id="line2d_3">
      <path d="M 174.878435 243.530617 
L 174.878435 22.318125 
" clip-path="url(#p4939e6f29b)" style="fill: none; stroke: #b0b0b0; stroke-opacity: 0.3; stroke-width: 0.8; stroke-linecap: square"/>
     </g>
     <g id="line2d_4">
      <g>
       <use xlink:href="#m3a2ddd8515" x="174.878435" y="243.530617" style="stroke: #000000; stroke-width: 0.8"/>
      </g>
     </g>
    </g>
    <g id="xtick_3">
     <g id="line2d_5">
      <path d="M 292.984007 243.530617 
L 292.984007 22.318125 
" clip-path="url(#p4939e6f29b)" style="fill: none; stroke: #b0b0b0; stroke-opacity: 0.3; stroke-width: 0.8; stroke-linecap: square"/>
     </g>
     <g id="line2d_6">
      <g>
       <use xlink:href="#m3a2ddd8515" x="292.984007" y="243.530617" style="stroke: #000000; stroke-width: 0.8"/>
      </g>
     </g>
    </g>
    <g id="xtick_4">
     <g id="line2d_7">
      <path d="M 411.089578 243.530617 
L 411.089578 22.318125 
" clip-path="url(#p4939e6f29b)" style="fill: none; stroke: #b0b0b0; stroke-opacity: 0.3; stroke-width: 0.8; stroke-linecap: square"/>
     </g>
     <g id="line2d_8">
      <g>
       <use xlink:href="#m3a2ddd8515" x="411.089578" y="243.530617" style="stroke: #000000; stroke-width: 0.8"/>
      </g>
     </g>
    </g>
    <g id="xtick_5">
     <g id="line2d_9">
      <path d="M 529.19515 243.530617 
L 529.19515 22.318125 
" clip-path="url(#p4939e6f29b)" style="fill: none; stroke: #b0b0b0; stroke-opacity: 0.3; stroke-width: 0.8; stroke-linecap: square"/>
     </g>
     <g id="line2d_10">
      <g>
       <use xlink:href="#m3a2ddd8515" x="529.19515" y="243.530617" style="stroke: #000000; stroke-width: 0.8"/>
      </g>
     </g>
    </g>
    <g id="xtick_6">
     <g id="line2d_11">
      <path d="M 647.300722 243.530617 
L 647.300722 22.318125 
" clip-path="url(#p4939e6f29b)" style="fill: none; stroke: #b0b0b0; stroke-opacity: 0.3; stroke-width: 0.8; stroke-linecap: square"/>
     </g>
     <g id="line2d_12">
      <g>
       <use xlink:href="#m3a2ddd8515" x="647.300722" y="243.530617" style="stroke: #000000; stroke-width: 0.8"/>
      </g>
     </g>
    </g>
    <g id="xtick_7">
     <g id="line2d_13">
      <path d="M 765.406294 243.530617 
L 765.406294 22.318125 
" clip-path="url(#p4939e6f29b)" style="fill: none; stroke: #b0b0b0; stroke-opacity: 0.3; stroke-width: 0.8; stroke-linecap: square"/>
     </g>
     <g id="line2d_14">
      <g>
       <use xlink:href="#m3a2ddd8515" x="765.406294" y="243.530617" style="stroke: #000000; stroke-width: 0.8"/>
      </g>
     </g>
    </g>
   </g>
   <g id="matplotlib.axis_2">
    <g id="ytick_1">
     <g id="line2d_15">
      <path d="M 43.78125 233.475504 
L 849.26125 233.475504 
" clip-path="url(#p4939e6f29b)" style="fill: none; stroke: #b0b0b0; stroke-opacity: 0.3; stroke-width: 0.8; stroke-linecap: square"/>
     </g>
     <g id="line2d_16">
      <defs>
       <path id="m2b094065c9" d="M 0 0 
L -3.5 0 
" style="stroke: #000000; stroke-width: 0.8"/>
      </defs>
      <g>
       <use xlink:href="#m2b094065c9" x="43.78125" y="233.475504" style="stroke: #000000; stroke-width: 0.8"/>
      </g>
     </g>
     <g id="text_1">
      <!-- 0.0 -->
      <g transform="translate(20.878125 237.274723) scale(0.1 -0.1)">
       <defs>
        <path id="DejaVuSans-30" d="M 2034 4250 
Q 1547 4250 1301 3770 
Q 1056 3291 1056 2328 
Q 1056 1369 1301 889 
Q 1547 409 2034 409 
Q 2525 409 2770 889 
Q 3016 1369 3016 2328 
Q 3016 3291 2770 3770 
Q 2525 4250 2034 4250 
z
M 2034 4750 
Q 2819 4750 3233 4129 
Q 3647 3509 3647 2328 
Q 3647 1150 3233 529 
Q 2819 -91 2034 -91 
Q 1250 -91 836 529 
Q 422 1150 422 2328 
Q 422 3509 836 4129 
Q 1250 4750 2034 4750 
z
" transform="scale(0.015625)"/>
        <path id="DejaVuSans-2e" d="M 684 794 
L 1344 794 
L 1344 0 
L 684 0 
L 684 794 
z
" transform="scale(0.015625)"/>
       </defs>
       <use xlink:href="#DejaVuSans-30"/>
       <use xlink:href="#DejaVuSans-2e" transform="translate(63.623047 0)"/>
       <use xlink:href="#DejaVuSans-30" transform="translate(95.410156 0)"/>
      </g>
     </g>
    </g>
    <g id="ytick_2">
     <g id="line2d_17">
      <path d="M 43.78125 184.794249 
L 849.26125 184.794249 
" clip-path="url(#p4939e6f29b)" style="fill: none; stroke: #b0b0b0; stroke-opacity: 0.3; stroke-width: 0.8; stroke-linecap: square"/>
     </g>
     <g id="line2d_18">
      <g>
       <use xlink:href="#m2b094065c9" x="43.78125" y="184.794249" style="stroke: #000000; stroke-width: 0.8"/>
      </g>
     </g>
     <g id="text_2">
      <!-- 0.2 -->
      <g transform="translate(20.878125 188.593468) scale(0.1 -0.1)">
       <defs>
        <path id="DejaVuSans-32" d="M 1228 531 
L 3431 531 
L 3431 0 
L 469 0 
L 469 531 
Q 828 903 1448 1529 
Q 2069 2156 2228 2338 
Q 2531 2678 2651 2914 
Q 2772 3150 2772 3378 
Q 2772 3750 2511 3984 
Q 2250 4219 1831 4219 
Q 1534 4219 1204 4116 
Q 875 4013 500 3803 
L 500 4441 
Q 881 4594 1212 4672 
Q 1544 4750 1819 4750 
Q 2544 4750 2975 4387 
Q 3406 4025 3406 3419 
Q 3406 3131 3298 2873 
Q 3191 2616 2906 2266 
Q 2828 2175 2409 1742 
Q 1991 1309 1228 531 
z
" transform="scale(0.015625)"/>
       </defs>
       <use xlink:href="#DejaVuSans-30"/>
       <use xlink:href="#DejaVuSans-2e" transform="translate(63.623047 0)"/>
       <use xlink:href="#DejaVuSans-32" transform="translate(95.410156 0)"/>
      </g>
     </g>
    </g>
    <g id="ytick_3">
     <g id="line2d_19">
      <path d="M 43.78125 136.112993 
L 849.26125 136.112993 
" clip-path="url(#p4939e6f29b)" style="fill: none; stroke: #b0b0b0; stroke-opacity: 0.3; stroke-width: 0.8; stroke-linecap: square"/>
     </g>
     <g id="line2d_20">
      <g>
       <use xlink:href="#m2b094065c9" x="43.78125" y="136.112993" style="stroke: #000000; stroke-width: 0.8"/>
      </g>
     </g>
     <g id="text_3">
      <!-- 0.4 -->
      <g transform="translate(20.878125 139.912212) scale(0.1 -0.1)">
       <defs>
        <path id="DejaVuSans-34" d="M 2419 4116 
L 825 1625 
L 2419 1625 
L 2419 4116 
z
M 2253 4666 
L 3047 4666 
L 3047 1625 
L 3713 1625 
L 3713 1100 
L 3047 1100 
L 3047 0 
L 2419 0 
L 2419 1100 
L 313 1100 
L 313 1709 
L 2253 4666 
z
" transform="scale(0.015625)"/>
       </defs>
       <use xlink:href="#DejaVuSans-30"/>
       <use xlink:href="#DejaVuSans-2e" transform="translate(63.623047 0)"/>
       <use xlink:href="#DejaVuSans-34" transform="translate(95.410156 0)"/>
      </g>
     </g>
    </g>
    <g id="ytick_4">
     <g id="line2d_21">
      <path d="M 43.78125 87.431738 
L 849.26125 87.431738 
" clip-path="url(#p4939e6f29b)" style="fill: none; stroke: #b0b0b0; stroke-opacity: 0.3; stroke-width: 0.8; stroke-linecap: square"/>
     </g>
     <g id="line2d_22">
      <g>
       <use xlink:href="#m2b094065c9" x="43.78125" y="87.431738" style="stroke: #000000; stroke-width: 0.8"/>
      </g>
     </g>
     <g id="text_4">
      <!-- 0.6 -->
      <g transform="translate(20.878125 91.230957) scale(0.1 -0.1)">
       <defs>
        <path id="DejaVuSans-36" d="M 2113 2584 
Q 1688 2584 1439 2293 
Q 1191 2003 1191 1497 
Q 1191 994 1439 701 
Q 1688 409 2113 409 
Q 2538 409 2786 701 
Q 3034 994 3034 1497 
Q 3034 2003 2786 2293 
Q 2538 2584 2113 2584 
z
M 3366 4563 
L 3366 3988 
Q 3128 4100 2886 4159 
Q 2644 4219 2406 4219 
Q 1781 4219 1451 3797 
Q 1122 3375 1075 2522 
Q 1259 2794 1537 2939 
Q 1816 3084 2150 3084 
Q 2853 3084 3261 2657 
Q 3669 2231 3669 1497 
Q 3669 778 3244 343 
Q 2819 -91 2113 -91 
Q 1303 -91 875 529 
Q 447 1150 447 2328 
Q 447 3434 972 4092 
Q 1497 4750 2381 4750 
Q 2619 4750 2861 4703 
Q 3103 4656 3366 4563 
z
" transform="scale(0.015625)"/>
       </defs>
       <use xlink:href="#DejaVuSans-30"/>
       <use xlink:href="#DejaVuSans-2e" transform="translate(63.623047 0)"/>
       <use xlink:href="#DejaVuSans-36" transform="translate(95.410156 0)"/>
      </g>
     </g>
    </g>
    <g id="ytick_5">
     <g id="line2d_23">
      <path d="M 43.78125 38.750483 
L 849.26125 38.750483 
" clip-path="url(#p4939e6f29b)" style="fill: none; stroke: #b0b0b0; stroke-opacity: 0.3; stroke-width: 0.8; stroke-linecap: square"/>
     </g>
     <g id="line2d_24">
      <g>
       <use xlink:href="#m2b094065c9" x="43.78125" y="38.750483" style="stroke: #000000; stroke-width: 0.8"/>
      </g>
     </g>
     <g id="text_5">
      <!-- 0.8 -->
      <g transform="translate(20.878125 42.549701) scale(0.1 -0.1)">
       <defs>
        <path id="DejaVuSans-38" d="M 2034 2216 
Q 1584 2216 1326 1975 
Q 1069 1734 1069 1313 
Q 1069 891 1326 650 
Q 1584 409 2034 409 
Q 2484 409 2743 651 
Q 3003 894 3003 1313 
Q 3003 1734 2745 1975 
Q 2488 2216 2034 2216 
z
M 1403 2484 
Q 997 2584 770 2862 
Q 544 3141 544 3541 
Q 544 4100 942 4425 
Q 1341 4750 2034 4750 
Q 2731 4750 3128 4425 
Q 3525 4100 3525 3541 
Q 3525 3141 3298 2862 
Q 3072 2584 2669 2484 
Q 3125 2378 3379 2068 
Q 3634 1759 3634 1313 
Q 3634 634 3220 271 
Q 2806 -91 2034 -91 
Q 1263 -91 848 271 
Q 434 634 434 1313 
Q 434 1759 690 2068 
Q 947 2378 1403 2484 
z
M 1172 3481 
Q 1172 3119 1398 2916 
Q 1625 2713 2034 2713 
Q 2441 2713 2670 2916 
Q 2900 3119 2900 3481 
Q 2900 3844 2670 4047 
Q 2441 4250 2034 4250 
Q 1625 4250 1398 4047 
Q 1172 3844 1172 3481 
z
" transform="scale(0.015625)"/>
       </defs>
       <use xlink:href="#DejaVuSans-30"/>
       <use xlink:href="#DejaVuSans-2e" transform="translate(63.623047 0)"/>
       <use xlink:href="#DejaVuSans-38" transform="translate(95.410156 0)"/>
      </g>
     </g>
    </g>
    <g id="text_6">
     <!-- Total reward -->
     <g transform="translate(14.798438 163.50484) rotate(-90) scale(0.1 -0.1)">
      <defs>
       <path id="DejaVuSans-54" d="M -19 4666 
L 3928 4666 
L 3928 4134 
L 2272 4134 
L 2272 0 
L 1638 0 
L 1638 4134 
L -19 4134 
L -19 4666 
z
" transform="scale(0.015625)"/>
       <path id="DejaVuSans-6f" d="M 1959 3097 
Q 1497 3097 1228 2736 
Q 959 2375 959 1747 
Q 959 1119 1226 758 
Q 1494 397 1959 397 
Q 2419 397 2687 759 
Q 2956 1122 2956 1747 
Q 2956 2369 2687 2733 
Q 2419 3097 1959 3097 
z
M 1959 3584 
Q 2709 3584 3137 3096 
Q 3566 2609 3566 1747 
Q 3566 888 3137 398 
Q 2709 -91 1959 -91 
Q 1206 -91 779 398 
Q 353 888 353 1747 
Q 353 2609 779 3096 
Q 1206 3584 1959 3584 
z
" transform="scale(0.015625)"/>
       <path id="DejaVuSans-74" d="M 1172 4494 
L 1172 3500 
L 2356 3500 
L 2356 3053 
L 1172 3053 
L 1172 1153 
Q 1172 725 1289 603 
Q 1406 481 1766 481 
L 2356 481 
L 2356 0 
L 1766 0 
Q 1100 0 847 248 
Q 594 497 594 1153 
L 594 3053 
L 172 3053 
L 172 3500 
L 594 3500 
L 594 4494 
L 1172 4494 
z
" transform="scale(0.015625)"/>
       <path id="DejaVuSans-61" d="M 2194 1759 
Q 1497 1759 1228 1600 
Q 959 1441 959 1056 
Q 959 750 1161 570 
Q 1363 391 1709 391 
Q 2188 391 2477 730 
Q 2766 1069 2766 1631 
L 2766 1759 
L 2194 1759 
z
M 3341 1997 
L 3341 0 
L 2766 0 
L 2766 531 
Q 2569 213 2275 61 
Q 1981 -91 1556 -91 
Q 1019 -91 701 211 
Q 384 513 384 1019 
Q 384 1609 779 1909 
Q 1175 2209 1959 2209 
L 2766 2209 
L 2766 2266 
Q 2766 2663 2505 2880 
Q 2244 3097 1772 3097 
Q 1472 3097 1187 3025 
Q 903 2953 641 2809 
L 641 3341 
Q 956 3463 1253 3523 
Q 1550 3584 1831 3584 
Q 2591 3584 2966 3190 
Q 3341 2797 3341 1997 
z
" transform="scale(0.015625)"/>
       <path id="DejaVuSans-6c" d="M 603 4863 
L 1178 4863 
L 1178 0 
L 603 0 
L 603 4863 
z
" transform="scale(0.015625)"/>
       <path id="DejaVuSans-20" transform="scale(0.015625)"/>
       <path id="DejaVuSans-72" d="M 2631 2963 
Q 2534 3019 2420 3045 
Q 2306 3072 2169 3072 
Q 1681 3072 1420 2755 
Q 1159 2438 1159 1844 
L 1159 0 
L 581 0 
L 581 3500 
L 1159 3500 
L 1159 2956 
Q 1341 3275 1631 3429 
Q 1922 3584 2338 3584 
Q 2397 3584 2469 3576 
Q 2541 3569 2628 3553 
L 2631 2963 
z
" transform="scale(0.015625)"/>
       <path id="DejaVuSans-65" d="M 3597 1894 
L 3597 1613 
L 953 1613 
Q 991 1019 1311 708 
Q 1631 397 2203 397 
Q 2534 397 2845 478 
Q 3156 559 3463 722 
L 3463 178 
Q 3153 47 2828 -22 
Q 2503 -91 2169 -91 
Q 1331 -91 842 396 
Q 353 884 353 1716 
Q 353 2575 817 3079 
Q 1281 3584 2069 3584 
Q 2775 3584 3186 3129 
Q 3597 2675 3597 1894 
z
M 3022 2063 
Q 3016 2534 2758 2815 
Q 2500 3097 2075 3097 
Q 1594 3097 1305 2825 
Q 1016 2553 972 2059 
L 3022 2063 
z
" transform="scale(0.015625)"/>
       <path id="DejaVuSans-77" d="M 269 3500 
L 844 3500 
L 1563 769 
L 2278 3500 
L 2956 3500 
L 3675 769 
L 4391 3500 
L 4966 3500 
L 4050 0 
L 3372 0 
L 2619 2869 
L 1863 0 
L 1184 0 
L 269 3500 
z
" transform="scale(0.015625)"/>
       <path id="DejaVuSans-64" d="M 2906 2969 
L 2906 4863 
L 3481 4863 
L 3481 0 
L 2906 0 
L 2906 525 
Q 2725 213 2448 61 
Q 2172 -91 1784 -91 
Q 1150 -91 751 415 
Q 353 922 353 1747 
Q 353 2572 751 3078 
Q 1150 3584 1784 3584 
Q 2172 3584 2448 3432 
Q 2725 3281 2906 2969 
z
M 947 1747 
Q 947 1113 1208 752 
Q 1469 391 1925 391 
Q 2381 391 2643 752 
Q 2906 1113 2906 1747 
Q 2906 2381 2643 2742 
Q 2381 3103 1925 3103 
Q 1469 3103 1208 2742 
Q 947 2381 947 1747 
z
" transform="scale(0.015625)"/>
      </defs>
      <use xlink:href="#DejaVuSans-54"/>
      <use xlink:href="#DejaVuSans-6f" transform="translate(44.083984 0)"/>
      <use xlink:href="#DejaVuSans-74" transform="translate(105.265625 0)"/>
      <use xlink:href="#DejaVuSans-61" transform="translate(144.474609 0)"/>
      <use xlink:href="#DejaVuSans-6c" transform="translate(205.753906 0)"/>
      <use xlink:href="#DejaVuSans-20" transform="translate(233.537109 0)"/>
      <use xlink:href="#DejaVuSans-72" transform="translate(265.324219 0)"/>
      <use xlink:href="#DejaVuSans-65" transform="translate(304.1875 0)"/>
      <use xlink:href="#DejaVuSans-77" transform="translate(365.710938 0)"/>
      <use xlink:href="#DejaVuSans-61" transform="translate(447.498047 0)"/>
      <use xlink:href="#DejaVuSans-72" transform="translate(508.777344 0)"/>
      <use xlink:href="#DejaVuSans-64" transform="translate(548.140625 0)"/>
     </g>
    </g>
   </g>
   <g id="line2d_25">
    <path d="M 80.393977 157.28934 
L 104.015092 169.483994 
L 127.636206 149.086548 
L 151.25732 143.707269 
L 174.878435 135.407115 
L 198.499549 140.080516 
L 222.120663 145.581498 
L 245.741778 137.622112 
L 269.362892 139.325956 
L 292.984007 120.364607 
L 316.605121 130.246902 
L 340.226235 119.050213 
L 363.84735 116.835216 
L 387.468464 106.222703 
L 411.089578 92.226842 
L 434.710693 97.922549 
L 458.331807 98.068592 
L 481.952922 104.275452 
L 505.574036 104.202431 
L 529.19515 73.16813 
L 552.816265 82.977403 
L 576.437379 71.585989 
L 600.058493 85.411466 
L 623.679608 66.57182 
L 647.300722 74.774612 
L 670.921837 71.537308 
L 694.542951 44.397508 
L 718.164065 56.08101 
L 741.78518 49.143931 
L 765.406294 56.397438 
L 789.027408 49.557721 
L 812.648523 32.373238 
" clip-path="url(#p4939e6f29b)" style="fill: none; stroke: #1f77b4; stroke-opacity: 0.25; stroke-width: 1.5; stroke-linecap: square"/>
   </g>
   <g id="line2d_26">
    <path d="M 80.393977 157.28934 
L 104.015092 163.386667 
L 127.636206 158.61996 
L 151.25732 154.891788 
L 174.878435 150.994853 
L 198.499549 149.175797 
L 222.120663 147.22449 
L 245.741778 141.914176 
L 269.362892 140.287411 
L 292.984007 136.396967 
L 316.605121 135.536932 
L 340.226235 132.031882 
L 363.84735 127.240835 
L 387.468464 122.0076 
L 411.089578 114.157747 
L 434.710693 110.417404 
L 458.331807 105.054353 
L 481.952922 102.591892 
L 505.574036 100.486428 
L 529.19515 94.977333 
L 552.816265 93.43576 
L 576.437379 89.046333 
L 600.058493 86.936812 
L 623.679608 80.652873 
L 647.300722 75.748237 
L 670.921837 75.476433 
L 694.542951 69.046451 
L 718.164065 66.462287 
L 741.78518 60.417698 
L 765.406294 58.721968 
L 789.027408 54.519153 
L 812.648523 47.991808 
" clip-path="url(#p4939e6f29b)" style="fill: none; stroke: #1f77b4; stroke-width: 2; stroke-linecap: square"/>
   </g>
   <g id="line2d_27">
    <path d="M 43.78125 233.475504 
L 849.26125 233.475504 
" clip-path="url(#p4939e6f29b)" style="fill: none; stroke-dasharray: 5.55,2.4; stroke-dashoffset: 0; stroke: #808080; stroke-opacity: 0.5; stroke-width: 1.5"/>
   </g>
   <g id="line2d_28">
    <path d="M 43.78125 111.772366 
L 849.26125 111.772366 
" clip-path="url(#p4939e6f29b)" style="fill: none; stroke-dasharray: 1.5,2.475; stroke-dashoffset: 0; stroke: #008000; stroke-opacity: 0.5; stroke-width: 1.5"/>
   </g>
   <g id="patch_3">
    <path d="M 43.78125 243.530617 
L 43.78125 22.318125 
" style="fill: none; stroke: #000000; stroke-width: 0.8; stroke-linejoin: miter; stroke-linecap: square"/>
   </g>
   <g id="patch_4">
    <path d="M 849.26125 243.530617 
L 849.26125 22.318125 
" style="fill: none; stroke: #000000; stroke-width: 0.8; stroke-linejoin: miter; stroke-linecap: square"/>
   </g>
   <g id="patch_5">
    <path d="M 43.78125 243.530617 
L 849.26125 243.530617 
" style="fill: none; stroke: #000000; stroke-width: 0.8; stroke-linejoin: miter; stroke-linecap: square"/>
   </g>
   <g id="patch_6">
    <path d="M 43.78125 22.318125 
L 849.26125 22.318125 
" style="fill: none; stroke: #000000; stroke-width: 0.8; stroke-linejoin: miter; stroke-linecap: square"/>
   </g>
   <g id="text_7">
    <!-- DriftShield — GRPO training (32 episodes, schema=v2) -->
    <g transform="translate(280.466563 16.318125) scale(0.12 -0.12)">
     <defs>
      <path id="DejaVuSans-44" d="M 1259 4147 
L 1259 519 
L 2022 519 
Q 2988 519 3436 956 
Q 3884 1394 3884 2338 
Q 3884 3275 3436 3711 
Q 2988 4147 2022 4147 
L 1259 4147 
z
M 628 4666 
L 1925 4666 
Q 3281 4666 3915 4102 
Q 4550 3538 4550 2338 
Q 4550 1131 3912 565 
Q 3275 0 1925 0 
L 628 0 
L 628 4666 
z
" transform="scale(0.015625)"/>
      <path id="DejaVuSans-69" d="M 603 3500 
L 1178 3500 
L 1178 0 
L 603 0 
L 603 3500 
z
M 603 4863 
L 1178 4863 
L 1178 4134 
L 603 4134 
L 603 4863 
z
" transform="scale(0.015625)"/>
      <path id="DejaVuSans-66" d="M 2375 4863 
L 2375 4384 
L 1825 4384 
Q 1516 4384 1395 4259 
Q 1275 4134 1275 3809 
L 1275 3500 
L 2222 3500 
L 2222 3053 
L 1275 3053 
L 1275 0 
L 697 0 
L 697 3053 
L 147 3053 
L 147 3500 
L 697 3500 
L 697 3744 
Q 697 4328 969 4595 
Q 1241 4863 1831 4863 
L 2375 4863 
z
" transform="scale(0.015625)"/>
      <path id="DejaVuSans-53" d="M 3425 4513 
L 3425 3897 
Q 3066 4069 2747 4153 
Q 2428 4238 2131 4238 
Q 1616 4238 1336 4038 
Q 1056 3838 1056 3469 
Q 1056 3159 1242 3001 
Q 1428 2844 1947 2747 
L 2328 2669 
Q 3034 2534 3370 2195 
Q 3706 1856 3706 1288 
Q 3706 609 3251 259 
Q 2797 -91 1919 -91 
Q 1588 -91 1214 -16 
Q 841 59 441 206 
L 441 856 
Q 825 641 1194 531 
Q 1563 422 1919 422 
Q 2459 422 2753 634 
Q 3047 847 3047 1241 
Q 3047 1584 2836 1778 
Q 2625 1972 2144 2069 
L 1759 2144 
Q 1053 2284 737 2584 
Q 422 2884 422 3419 
Q 422 4038 858 4394 
Q 1294 4750 2059 4750 
Q 2388 4750 2728 4690 
Q 3069 4631 3425 4513 
z
" transform="scale(0.015625)"/>
      <path id="DejaVuSans-68" d="M 3513 2113 
L 3513 0 
L 2938 0 
L 2938 2094 
Q 2938 2591 2744 2837 
Q 2550 3084 2163 3084 
Q 1697 3084 1428 2787 
Q 1159 2491 1159 1978 
L 1159 0 
L 581 0 
L 581 4863 
L 1159 4863 
L 1159 2956 
Q 1366 3272 1645 3428 
Q 1925 3584 2291 3584 
Q 2894 3584 3203 3211 
Q 3513 2838 3513 2113 
z
" transform="scale(0.015625)"/>
      <path id="DejaVuSans-2014" d="M 313 1978 
L 6088 1978 
L 6088 1528 
L 313 1528 
L 313 1978 
z
" transform="scale(0.015625)"/>
      <path id="DejaVuSans-47" d="M 3809 666 
L 3809 1919 
L 2778 1919 
L 2778 2438 
L 4434 2438 
L 4434 434 
Q 4069 175 3628 42 
Q 3188 -91 2688 -91 
Q 1594 -91 976 548 
Q 359 1188 359 2328 
Q 359 3472 976 4111 
Q 1594 4750 2688 4750 
Q 3144 4750 3555 4637 
Q 3966 4525 4313 4306 
L 4313 3634 
Q 3963 3931 3569 4081 
Q 3175 4231 2741 4231 
Q 1884 4231 1454 3753 
Q 1025 3275 1025 2328 
Q 1025 1384 1454 906 
Q 1884 428 2741 428 
Q 3075 428 3337 486 
Q 3600 544 3809 666 
z
" transform="scale(0.015625)"/>
      <path id="DejaVuSans-52" d="M 2841 2188 
Q 3044 2119 3236 1894 
Q 3428 1669 3622 1275 
L 4263 0 
L 3584 0 
L 2988 1197 
Q 2756 1666 2539 1819 
Q 2322 1972 1947 1972 
L 1259 1972 
L 1259 0 
L 628 0 
L 628 4666 
L 2053 4666 
Q 2853 4666 3247 4331 
Q 3641 3997 3641 3322 
Q 3641 2881 3436 2590 
Q 3231 2300 2841 2188 
z
M 1259 4147 
L 1259 2491 
L 2053 2491 
Q 2509 2491 2742 2702 
Q 2975 2913 2975 3322 
Q 2975 3731 2742 3939 
Q 2509 4147 2053 4147 
L 1259 4147 
z
" transform="scale(0.015625)"/>
      <path id="DejaVuSans-50" d="M 1259 4147 
L 1259 2394 
L 2053 2394 
Q 2494 2394 2734 2622 
Q 2975 2850 2975 3272 
Q 2975 3691 2734 3919 
Q 2494 4147 2053 4147 
L 1259 4147 
z
M 628 4666 
L 2053 4666 
Q 2838 4666 3239 4311 
Q 3641 3956 3641 3272 
Q 3641 2581 3239 2228 
Q 2838 1875 2053 1875 
L 1259 1875 
L 1259 0 
L 628 0 
L 628 4666 
z
" transform="scale(0.015625)"/>
      <path id="DejaVuSans-4f" d="M 2522 4238 
Q 1834 4238 1429 3725 
Q 1025 3213 1025 2328 
Q 1025 1447 1429 934 
Q 1834 422 2522 422 
Q 3209 422 3611 934 
Q 4013 1447 4013 2328 
Q 4013 3213 3611 3725 
Q 3209 4238 2522 4238 
z
M 2522 4750 
Q 3503 4750 4090 4092 
Q 4678 3434 4678 2328 
Q 4678 1225 4090 567 
Q 3503 -91 2522 -91 
Q 1538 -91 948 565 
Q 359 1222 359 2328 
Q 359 3434 948 4092 
Q 1538 4750 2522 4750 
z
" transform="scale(0.015625)"/>
      <path id="DejaVuSans-6e" d="M 3513 2113 
L 3513 0 
L 2938 0 
L 2938 2094 
Q 2938 2591 2744 2837 
Q 2550 3084 2163 3084 
Q 1697 3084 1428 2787 
Q 1159 2491 1159 1978 
L 1159 0 
L 581 0 
L 581 3500 
L 1159 3500 
L 1159 2956 
Q 1366 3272 1645 3428 
Q 1925 3584 2291 3584 
Q 2894 3584 3203 3211 
Q 3513 2838 3513 2113 
z
" transform="scale(0.015625)"/>
      <path id="DejaVuSans-67" d="M 2906 1791 
Q 2906 2416 2648 2759 
Q 2391 3103 1925 3103 
Q 1463 3103 1205 2759 
Q 947 2416 947 1791 
Q 947 1169 1205 825 
Q 1463 481 1925 481 
Q 2391 481 2648 825 
Q 2906 1169 2906 1791 
z
M 3481 434 
Q 3481 -459 3084 -895 
Q 2688 -1331 1869 -1331 
Q 1566 -1331 1297 -1286 
Q 1028 -1241 775 -1147 
L 775 -588 
Q 1028 -725 1275 -790 
Q 1522 -856 1778 -856 
Q 2344 -856 2625 -561 
Q 2906 -266 2906 331 
L 2906 616 
Q 2728 306 2450 153 
Q 2172 0 1784 0 
Q 1141 0 747 490 
Q 353 981 353 1791 
Q 353 2603 747 3093 
Q 1141 3584 1784 3584 
Q 2172 3584 2450 3431 
Q 2728 3278 2906 2969 
L 2906 3500 
L 3481 3500 
L 3481 434 
z
" transform="scale(0.015625)"/>
      <path id="DejaVuSans-28" d="M 1984 4856 
Q 1566 4138 1362 3434 
Q 1159 2731 1159 2009 
Q 1159 1288 1364 580 
Q 1569 -128 1984 -844 
L 1484 -844 
Q 1016 -109 783 600 
Q 550 1309 550 2009 
Q 550 2706 781 3412 
Q 1013 4119 1484 4856 
L 1984 4856 
z
" transform="scale(0.015625)"/>
      <path id="DejaVuSans-33" d="M 2597 2516 
Q 3050 2419 3304 2112 
Q 3559 1806 3559 1356 
Q 3559 666 3084 287 
Q 2609 -91 1734 -91 
Q 1441 -91 1130 -33 
Q 819 25 488 141 
L 488 750 
Q 750 597 1062 519 
Q 1375 441 1716 441 
Q 2309 441 2620 675 
Q 2931 909 2931 1356 
Q 2931 1769 2642 2001 
Q 2353 2234 1838 2234 
L 1294 2234 
L 1294 2753 
L 1863 2753 
Q 2328 2753 2575 2939 
Q 2822 3125 2822 3475 
Q 2822 3834 2567 4026 
Q 2313 4219 1838 4219 
Q 1578 4219 1281 4162 
Q 984 4106 628 3988 
L 628 4550 
Q 988 4650 1302 4700 
Q 1616 4750 1894 4750 
Q 2613 4750 3031 4423 
Q 3450 4097 3450 3541 
Q 3450 3153 3228 2886 
Q 3006 2619 2597 2516 
z
" transform="scale(0.015625)"/>
      <path id="DejaVuSans-70" d="M 1159 525 
L 1159 -1331 
L 581 -1331 
L 581 3500 
L 1159 3500 
L 1159 2969 
Q 1341 3281 1617 3432 
Q 1894 3584 2278 3584 
Q 2916 3584 3314 3078 
Q 3713 2572 3713 1747 
Q 3713 922 3314 415 
Q 2916 -91 2278 -91 
Q 1894 -91 1617 61 
Q 1341 213 1159 525 
z
M 3116 1747 
Q 3116 2381 2855 2742 
Q 2594 3103 2138 3103 
Q 1681 3103 1420 2742 
Q 1159 2381 1159 1747 
Q 1159 1113 1420 752 
Q 1681 391 2138 391 
Q 2594 391 2855 752 
Q 3116 1113 3116 1747 
z
" transform="scale(0.015625)"/>
      <path id="DejaVuSans-73" d="M 2834 3397 
L 2834 2853 
Q 2591 2978 2328 3040 
Q 2066 3103 1784 3103 
Q 1356 3103 1142 2972 
Q 928 2841 928 2578 
Q 928 2378 1081 2264 
Q 1234 2150 1697 2047 
L 1894 2003 
Q 2506 1872 2764 1633 
Q 3022 1394 3022 966 
Q 3022 478 2636 193 
Q 2250 -91 1575 -91 
Q 1294 -91 989 -36 
Q 684 19 347 128 
L 347 722 
Q 666 556 975 473 
Q 1284 391 1588 391 
Q 1994 391 2212 530 
Q 2431 669 2431 922 
Q 2431 1156 2273 1281 
Q 2116 1406 1581 1522 
L 1381 1569 
Q 847 1681 609 1914 
Q 372 2147 372 2553 
Q 372 3047 722 3315 
Q 1072 3584 1716 3584 
Q 2034 3584 2315 3537 
Q 2597 3491 2834 3397 
z
" transform="scale(0.015625)"/>
      <path id="DejaVuSans-2c" d="M 750 794 
L 1409 794 
L 1409 256 
L 897 -744 
L 494 -744 
L 750 256 
L 750 794 
z
" transform="scale(0.015625)"/>
      <path id="DejaVuSans-63" d="M 3122 3366 
L 3122 2828 
Q 2878 2963 2633 3030 
Q 2388 3097 2138 3097 
Q 1578 3097 1268 2742 
Q 959 2388 959 1747 
Q 959 1106 1268 751 
Q 1578 397 2138 397 
Q 2388 397 2633 464 
Q 2878 531 3122 666 
L 3122 134 
Q 2881 22 2623 -34 
Q 2366 -91 2075 -91 
Q 1284 -91 818 406 
Q 353 903 353 1747 
Q 353 2603 823 3093 
Q 1294 3584 2113 3584 
Q 2378 3584 2631 3529 
Q 2884 3475 3122 3366 
z
" transform="scale(0.015625)"/>
      <path id="DejaVuSans-6d" d="M 3328 2828 
Q 3544 3216 3844 3400 
Q 4144 3584 4550 3584 
Q 5097 3584 5394 3201 
Q 5691 2819 5691 2113 
L 5691 0 
L 5113 0 
L 5113 2094 
Q 5113 2597 4934 2840 
Q 4756 3084 4391 3084 
Q 3944 3084 3684 2787 
Q 3425 2491 3425 1978 
L 3425 0 
L 2847 0 
L 2847 2094 
Q 2847 2600 2669 2842 
Q 2491 3084 2119 3084 
Q 1678 3084 1418 2786 
Q 1159 2488 1159 1978 
L 1159 0 
L 581 0 
L 581 3500 
L 1159 3500 
L 1159 2956 
Q 1356 3278 1631 3431 
Q 1906 3584 2284 3584 
Q 2666 3584 2933 3390 
Q 3200 3197 3328 2828 
z
" transform="scale(0.015625)"/>
      <path id="DejaVuSans-3d" d="M 678 2906 
L 4684 2906 
L 4684 2381 
L 678 2381 
L 678 2906 
z
M 678 1631 
L 4684 1631 
L 4684 1100 
L 678 1100 
L 678 1631 
z
" transform="scale(0.015625)"/>
      <path id="DejaVuSans-76" d="M 191 3500 
L 800 3500 
L 1894 563 
L 2988 3500 
L 3597 3500 
L 2284 0 
L 1503 0 
L 191 3500 
z
" transform="scale(0.015625)"/>
      <path id="DejaVuSans-29" d="M 513 4856 
L 1013 4856 
Q 1481 4119 1714 3412 
Q 1947 2706 1947 2009 
Q 1947 1309 1714 600 
Q 1481 -109 1013 -844 
L 513 -844 
Q 928 -128 1133 580 
Q 1338 1288 1338 2009 
Q 1338 2731 1133 3434 
Q 928 4138 513 4856 
z
" transform="scale(0.015625)"/>
     </defs>
     <use xlink:href="#DejaVuSans-44"/>
     <use xlink:href="#DejaVuSans-72" transform="translate(77.001953 0)"/>
     <use xlink:href="#DejaVuSans-69" transform="translate(118.115234 0)"/>
     <use xlink:href="#DejaVuSans-66" transform="translate(145.898438 0)"/>
     <use xlink:href="#DejaVuSans-74" transform="translate(179.353516 0)"/>
     <use xlink:href="#DejaVuSans-53" transform="translate(218.5625 0)"/>
     <use xlink:href="#DejaVuSans-68" transform="translate(282.039062 0)"/>
     <use xlink:href="#DejaVuSans-69" transform="translate(345.417969 0)"/>
     <use xlink:href="#DejaVuSans-65" transform="translate(373.201172 0)"/>
     <use xlink:href="#DejaVuSans-6c" transform="translate(434.724609 0)"/>
     <use xlink:href="#DejaVuSans-64" transform="translate(462.507812 0)"/>
     <use xlink:href="#DejaVuSans-20" transform="translate(525.984375 0)"/>
     <use xlink:href="#DejaVuSans-2014" transform="translate(557.771484 0)"/>
     <use xlink:href="#DejaVuSans-20" transform="translate(657.771484 0)"/>
     <use xlink:href="#DejaVuSans-47" transform="translate(689.558594 0)"/>
     <use xlink:href="#DejaVuSans-52" transform="translate(767.048828 0)"/>
     <use xlink:href="#DejaVuSans-50" transform="translate(836.53125 0)"/>
     <use xlink:href="#DejaVuSans-4f" transform="translate(896.833984 0)"/>
     <use xlink:href="#DejaVuSans-20" transform="translate(975.544922 0)"/>
     <use xlink:href="#DejaVuSans-74" transform="translate(1007.332031 0)"/>
     <use xlink:href="#DejaVuSans-72" transform="translate(1046.541016 0)"/>
     <use xlink:href="#DejaVuSans-61" transform="translate(1087.654297 0)"/>
     <use xlink:href="#DejaVuSans-69" transform="translate(1148.933594 0)"/>
     <use xlink:href="#DejaVuSans-6e" transform="translate(1176.716797 0)"/>
     <use xlink:href="#DejaVuSans-69" transform="translate(1240.095703 0)"/>
     <use xlink:href="#DejaVuSans-6e" transform="translate(1267.878906 0)"/>
     <use xlink:href="#DejaVuSans-67" transform="translate(1331.257812 0)"/>
     <use xlink:href="#DejaVuSans-20" transform="translate(1394.734375 0)"/>
     <use xlink:href="#DejaVuSans-28" transform="translate(1426.521484 0)"/>
     <use xlink:href="#DejaVuSans-33" transform="translate(1465.535156 0)"/>
     <use xlink:href="#DejaVuSans-32" transform="translate(1529.158203 0)"/>
     <use xlink:href="#DejaVuSans-20" transform="translate(1592.78125 0)"/>
     <use xlink:href="#DejaVuSans-65" transform="translate(1624.568359 0)"/>
     <use xlink:href="#DejaVuSans-70" transform="translate(1686.091797 0)"/>
     <use xlink:href="#DejaVuSans-69" transform="translate(1749.568359 0)"/>
     <use xlink:href="#DejaVuSans-73" transform="translate(1777.351562 0)"/>
     <use xlink:href="#DejaVuSans-6f" transform="translate(1829.451172 0)"/>
     <use xlink:href="#DejaVuSans-64" transform="translate(1890.632812 0)"/>
     <use xlink:href="#DejaVuSans-65" transform="translate(1954.109375 0)"/>
     <use xlink:href="#DejaVuSans-73" transform="translate(2015.632812 0)"/>
     <use xlink:href="#DejaVuSans-2c" transform="translate(2067.732422 0)"/>
     <use xlink:href="#DejaVuSans-20" transform="translate(2099.519531 0)"/>
     <use xlink:href="#DejaVuSans-73" transform="translate(2131.306641 0)"/>
     <use xlink:href="#DejaVuSans-63" transform="translate(2183.40625 0)"/>
     <use xlink:href="#DejaVuSans-68" transform="translate(2238.386719 0)"/>
     <use xlink:href="#DejaVuSans-65" transform="translate(2301.765625 0)"/>
     <use xlink:href="#DejaVuSans-6d" transform="translate(2363.289062 0)"/>
     <use xlink:href="#DejaVuSans-61" transform="translate(2460.701172 0)"/>
     <use xlink:href="#DejaVuSans-3d" transform="translate(2521.980469 0)"/>
     <use xlink:href="#DejaVuSans-76" transform="translate(2605.769531 0)"/>
     <use xlink:href="#DejaVuSans-32" transform="translate(2664.949219 0)"/>
     <use xlink:href="#DejaVuSans-29" transform="translate(2728.572266 0)"/>
    </g>
   </g>
   <g id="legend_1">
    <g id="patch_7">
     <path d="M 737.09875 238.530617 
L 842.26125 238.530617 
Q 844.26125 238.530617 844.26125 236.530617 
L 844.26125 193.496242 
Q 844.26125 191.496242 842.26125 191.496242 
L 737.09875 191.496242 
Q 735.09875 191.496242 735.09875 193.496242 
L 735.09875 236.530617 
Q 735.09875 238.530617 737.09875 238.530617 
z
" style="fill: #ffffff; opacity: 0.8; stroke: #cccccc; stroke-linejoin: miter"/>
    </g>
    <g id="line2d_29">
     <path d="M 739.09875 199.59468 
L 749.09875 199.59468 
L 759.09875 199.59468 
" style="fill: none; stroke: #1f77b4; stroke-opacity: 0.25; stroke-width: 1.5; stroke-linecap: square"/>
    </g>
    <g id="text_8">
     <!-- per episode -->
     <g transform="translate(767.09875 203.09468) scale(0.1 -0.1)">
      <use xlink:href="#DejaVuSans-70"/>
      <use xlink:href="#DejaVuSans-65" transform="translate(63.476562 0)"/>
      <use xlink:href="#DejaVuSans-72" transform="translate(125 0)"/>
      <use xlink:href="#DejaVuSans-20" transform="translate(166.113281 0)"/>
      <use xlink:href="#DejaVuSans-65" transform="translate(197.900391 0)"/>
      <use xlink:href="#DejaVuSans-70" transform="translate(259.423828 0)"/>
      <use xlink:href="#DejaVuSans-69" transform="translate(322.900391 0)"/>
      <use xlink:href="#DejaVuSans-73" transform="translate(350.683594 0)"/>
      <use xlink:href="#DejaVuSans-6f" transform="translate(402.783203 0)"/>
      <use xlink:href="#DejaVuSans-64" transform="translate(463.964844 0)"/>
      <use xlink:href="#DejaVuSans-65" transform="translate(527.441406 0)"/>
     </g>
    </g>
    <g id="line2d_30">
     <path d="M 739.09875 214.272805 
L 749.09875 214.272805 
L 759.09875 214.272805 
" style="fill: none; stroke: #1f77b4; stroke-width: 2; stroke-linecap: square"/>
    </g>
    <g id="text_9">
     <!-- rolling(6) -->
     <g transform="translate(767.09875 217.772805) scale(0.1 -0.1)">
      <use xlink:href="#DejaVuSans-72"/>
      <use xlink:href="#DejaVuSans-6f" transform="translate(38.863281 0)"/>
      <use xlink:href="#DejaVuSans-6c" transform="translate(100.044922 0)"/>
      <use xlink:href="#DejaVuSans-6c" transform="translate(127.828125 0)"/>
      <use xlink:href="#DejaVuSans-69" transform="translate(155.611328 0)"/>
      <use xlink:href="#DejaVuSans-6e" transform="translate(183.394531 0)"/>
      <use xlink:href="#DejaVuSans-67" transform="translate(246.773438 0)"/>
      <use xlink:href="#DejaVuSans-28" transform="translate(310.25 0)"/>
      <use xlink:href="#DejaVuSans-36" transform="translate(349.263672 0)"/>
      <use xlink:href="#DejaVuSans-29" transform="translate(412.886719 0)"/>
     </g>
    </g>
    <g id="line2d_31">
     <path d="M 739.09875 228.95093 
L 749.09875 228.95093 
L 759.09875 228.95093 
" style="fill: none; stroke-dasharray: 1.5,2.475; stroke-dashoffset: 0; stroke: #008000; stroke-opacity: 0.5; stroke-width: 1.5"/>
    </g>
    <g id="text_10">
     <!-- pass threshold -->
     <g transform="translate(767.09875 232.45093) scale(0.1 -0.1)">
      <use xlink:href="#DejaVuSans-70"/>
      <use xlink:href="#DejaVuSans-61" transform="translate(63.476562 0)"/>
      <use xlink:href="#DejaVuSans-73" transform="translate(124.755859 0)"/>
      <use xlink:href="#DejaVuSans-73" transform="translate(176.855469 0)"/>
      <use xlink:href="#DejaVuSans-20" transform="translate(228.955078 0)"/>
      <use xlink:href="#DejaVuSans-74" transform="translate(260.742188 0)"/>
      <use xlink:href="#DejaVuSans-68" transform="translate(299.951172 0)"/>
      <use xlink:href="#DejaVuSans-72" transform="translate(363.330078 0)"/>
      <use xlink:href="#DejaVuSans-65" transform="translate(402.193359 0)"/>
      <use xlink:href="#DejaVuSans-73" transform="translate(463.716797 0)"/>
      <use xlink:href="#DejaVuSans-68" transform="translate(515.816406 0)"/>
      <use xlink:href="#DejaVuSans-6f" transform="translate(579.195312 0)"/>
      <use xlink:href="#DejaVuSans-6c" transform="translate(640.376953 0)"/>
      <use xlink:href="#DejaVuSans-64" transform="translate(668.160156 0)"/>
     </g>
    </g>
   </g>
  </g>
  <g id="axes_2">
   <g id="patch_8">
    <path d="M 43.78125 482.846453 
L 849.26125 482.846453 
L 849.26125 261.633961 
L 43.78125 261.633961 
z
" style="fill: #ffffff"/>
   </g>
   <g id="matplotlib.axis_3">
    <g id="xtick_8">
     <g id="line2d_32">
      <path d="M 56.772863 482.846453 
L 56.772863 261.633961 
" clip-path="url(#p5fd3ee6a64)" style="fill: none; stroke: #b0b0b0; stroke-opacity: 0.3; stroke-width: 0.8; stroke-linecap: square"/>
     </g>
     <g id="line2d_33">
      <g>
       <use xlink:href="#m3a2ddd8515" x="56.772863" y="482.846453" style="stroke: #000000; stroke-width: 0.8"/>
      </g>
     </g>
    </g>
    <g id="xtick_9">
     <g id="line2d_34">
      <path d="M 174.878435 482.846453 
L 174.878435 261.633961 
" clip-path="url(#p5fd3ee6a64)" style="fill: none; stroke: #b0b0b0; stroke-opacity: 0.3; stroke-width: 0.8; stroke-linecap: square"/>
     </g>
     <g id="line2d_35">
      <g>
       <use xlink:href="#m3a2ddd8515" x="174.878435" y="482.846453" style="stroke: #000000; stroke-width: 0.8"/>
      </g>
     </g>
    </g>
    <g id="xtick_10">
     <g id="line2d_36">
      <path d="M 292.984007 482.846453 
L 292.984007 261.633961 
" clip-path="url(#p5fd3ee6a64)" style="fill: none; stroke: #b0b0b0; stroke-opacity: 0.3; stroke-width: 0.8; stroke-linecap: square"/>
     </g>
     <g id="line2d_37">
      <g>
       <use xlink:href="#m3a2ddd8515" x="292.984007" y="482.846453" style="stroke: #000000; stroke-width: 0.8"/>
      </g>
     </g>
    </g>
    <g id="xtick_11">
     <g id="line2d_38">
      <path d="M 411.089578 482.846453 
L 411.089578 261.633961 
" clip-path="url(#p5fd3ee6a64)" style="fill: none; stroke: #b0b0b0; stroke-opacity: 0.3; stroke-width: 0.8; stroke-linecap: square"/>
     </g>
     <g id="line2d_39">
      <g>
       <use xlink:href="#m3a2ddd8515" x="411.089578" y="482.846453" style="stroke: #000000; stroke-width: 0.8"/>
      </g>
     </g>
    </g>
    <g id="xtick_12">
     <g id="line2d_40">
      <path d="M 529.19515 482.846453 
L 529.19515 261.633961 
" clip-path="url(#p5fd3ee6a64)" style="fill: none; stroke: #b0b0b0; stroke-opacity: 0.3; stroke-width: 0.8; stroke-linecap: square"/>
     </g>
     <g id="line2d_41">
      <g>
       <use xlink:href="#m3a2ddd8515" x="529.19515" y="482.846453" style="stroke: #000000; stroke-width: 0.8"/>
      </g>
     </g>
    </g>
    <g id="xtick_13">
     <g id="line2d_42">
      <path d="M 647.300722 482.846453 
L 647.300722 261.633961 
" clip-path="url(#p5fd3ee6a64)" style="fill: none; stroke: #b0b0b0; stroke-opacity: 0.3; stroke-width: 0.8; stroke-linecap: square"/>
     </g>
     <g id="line2d_43">
      <g>
       <use xlink:href="#m3a2ddd8515" x="647.300722" y="482.846453" style="stroke: #000000; stroke-width: 0.8"/>
      </g>
     </g>
    </g>
    <g id="xtick_14">
     <g id="line2d_44">
      <path d="M 765.406294 482.846453 
L 765.406294 261.633961 
" clip-path="url(#p5fd3ee6a64)" style="fill: none; stroke: #b0b0b0; stroke-opacity: 0.3; stroke-width: 0.8; stroke-linecap: square"/>
     </g>
     <g id="line2d_45">
      <g>
       <use xlink:href="#m3a2ddd8515" x="765.406294" y="482.846453" style="stroke: #000000; stroke-width: 0.8"/>
      </g>
     </g>
    </g>
   </g>
   <g id="matplotlib.axis_4">
    <g id="ytick_6">
     <g id="line2d_46">
      <path d="M 43.78125 479.730693 
L 849.26125 479.730693 
" clip-path="url(#p5fd3ee6a64)" style="fill: none; stroke: #b0b0b0; stroke-opacity: 0.3; stroke-width: 0.8; stroke-linecap: square"/>
     </g>
     <g id="line2d_47">
      <g>
       <use xlink:href="#m2b094065c9" x="43.78125" y="479.730693" style="stroke: #000000; stroke-width: 0.8"/>
      </g>
     </g>
     <g id="text_11">
      <!-- 0.0 -->
      <g transform="translate(20.878125 483.529912) scale(0.1 -0.1)">
       <use xlink:href="#DejaVuSans-30"/>
       <use xlink:href="#DejaVuSans-2e" transform="translate(63.623047 0)"/>
       <use xlink:href="#DejaVuSans-30" transform="translate(95.410156 0)"/>
      </g>
     </g>
    </g>
    <g id="ytick_7">
     <g id="line2d_48">
      <path d="M 43.78125 449.94806 
L 849.26125 449.94806 
" clip-path="url(#p5fd3ee6a64)" style="fill: none; stroke: #b0b0b0; stroke-opacity: 0.3; stroke-width: 0.8; stroke-linecap: square"/>
     </g>
     <g id="line2d_49">
      <g>
       <use xlink:href="#m2b094065c9" x="43.78125" y="449.94806" style="stroke: #000000; stroke-width: 0.8"/>
      </g>
     </g>
     <g id="text_12">
      <!-- 0.1 -->
      <g transform="translate(20.878125 453.747279) scale(0.1 -0.1)">
       <defs>
        <path id="DejaVuSans-31" d="M 794 531 
L 1825 531 
L 1825 4091 
L 703 3866 
L 703 4441 
L 1819 4666 
L 2450 4666 
L 2450 531 
L 3481 531 
L 3481 0 
L 794 0 
L 794 531 
z
" transform="scale(0.015625)"/>
       </defs>
       <use xlink:href="#DejaVuSans-30"/>
       <use xlink:href="#DejaVuSans-2e" transform="translate(63.623047 0)"/>
       <use xlink:href="#DejaVuSans-31" transform="translate(95.410156 0)"/>
      </g>
     </g>
    </g>
    <g id="ytick_8">
     <g id="line2d_50">
      <path d="M 43.78125 420.165427 
L 849.26125 420.165427 
" clip-path="url(#p5fd3ee6a64)" style="fill: none; stroke: #b0b0b0; stroke-opacity: 0.3; stroke-width: 0.8; stroke-linecap: square"/>
     </g>
     <g id="line2d_51">
      <g>
       <use xlink:href="#m2b094065c9" x="43.78125" y="420.165427" style="stroke: #000000; stroke-width: 0.8"/>
      </g>
     </g>
     <g id="text_13">
      <!-- 0.2 -->
      <g transform="translate(20.878125 423.964646) scale(0.1 -0.1)">
       <use xlink:href="#DejaVuSans-30"/>
       <use xlink:href="#DejaVuSans-2e" transform="translate(63.623047 0)"/>
       <use xlink:href="#DejaVuSans-32" transform="translate(95.410156 0)"/>
      </g>
     </g>
    </g>
    <g id="ytick_9">
     <g id="line2d_52">
      <path d="M 43.78125 390.382794 
L 849.26125 390.382794 
" clip-path="url(#p5fd3ee6a64)" style="fill: none; stroke: #b0b0b0; stroke-opacity: 0.3; stroke-width: 0.8; stroke-linecap: square"/>
     </g>
     <g id="line2d_53">
      <g>
       <use xlink:href="#m2b094065c9" x="43.78125" y="390.382794" style="stroke: #000000; stroke-width: 0.8"/>
      </g>
     </g>
     <g id="text_14">
      <!-- 0.3 -->
      <g transform="translate(20.878125 394.182013) scale(0.1 -0.1)">
       <use xlink:href="#DejaVuSans-30"/>
       <use xlink:href="#DejaVuSans-2e" transform="translate(63.623047 0)"/>
       <use xlink:href="#DejaVuSans-33" transform="translate(95.410156 0)"/>
      </g>
     </g>
    </g>
    <g id="ytick_10">
     <g id="line2d_54">
      <path d="M 43.78125 360.600161 
L 849.26125 360.600161 
" clip-path="url(#p5fd3ee6a64)" style="fill: none; stroke: #b0b0b0; stroke-opacity: 0.3; stroke-width: 0.8; stroke-linecap: square"/>
     </g>
     <g id="line2d_55">
      <g>
       <use xlink:href="#m2b094065c9" x="43.78125" y="360.600161" style="stroke: #000000; stroke-width: 0.8"/>
      </g>
     </g>
     <g id="text_15">
      <!-- 0.4 -->
      <g transform="translate(20.878125 364.39938) scale(0.1 -0.1)">
       <use xlink:href="#DejaVuSans-30"/>
       <use xlink:href="#DejaVuSans-2e" transform="translate(63.623047 0)"/>
       <use xlink:href="#DejaVuSans-34" transform="translate(95.410156 0)"/>
      </g>
     </g>
    </g>
    <g id="ytick_11">
     <g id="line2d_56">
      <path d="M 43.78125 330.817528 
L 849.26125 330.817528 
" clip-path="url(#p5fd3ee6a64)" style="fill: none; stroke: #b0b0b0; stroke-opacity: 0.3; stroke-width: 0.8; stroke-linecap: square"/>
     </g>
     <g id="line2d_57">
      <g>
       <use xlink:href="#m2b094065c9" x="43.78125" y="330.817528" style="stroke: #000000; stroke-width: 0.8"/>
      </g>
     </g>
     <g id="text_16">
      <!-- 0.5 -->
      <g transform="translate(20.878125 334.616747) scale(0.1 -0.1)">
       <defs>
        <path id="DejaVuSans-35" d="M 691 4666 
L 3169 4666 
L 3169 4134 
L 1269 4134 
L 1269 2991 
Q 1406 3038 1543 3061 
Q 1681 3084 1819 3084 
Q 2600 3084 3056 2656 
Q 3513 2228 3513 1497 
Q 3513 744 3044 326 
Q 2575 -91 1722 -91 
Q 1428 -91 1123 -41 
Q 819 9 494 109 
L 494 744 
Q 775 591 1075 516 
Q 1375 441 1709 441 
Q 2250 441 2565 725 
Q 2881 1009 2881 1497 
Q 2881 1984 2565 2268 
Q 2250 2553 1709 2553 
Q 1456 2553 1204 2497 
Q 953 2441 691 2322 
L 691 4666 
z
" transform="scale(0.015625)"/>
       </defs>
       <use xlink:href="#DejaVuSans-30"/>
       <use xlink:href="#DejaVuSans-2e" transform="translate(63.623047 0)"/>
       <use xlink:href="#DejaVuSans-35" transform="translate(95.410156 0)"/>
      </g>
     </g>
    </g>
    <g id="ytick_12">
     <g id="line2d_58">
      <path d="M 43.78125 301.034895 
L 849.26125 301.034895 
" clip-path="url(#p5fd3ee6a64)" style="fill: none; stroke: #b0b0b0; stroke-opacity: 0.3; stroke-width: 0.8; stroke-linecap: square"/>
     </g>
     <g id="line2d_59">
      <g>
       <use xlink:href="#m2b094065c9" x="43.78125" y="301.034895" style="stroke: #000000; stroke-width: 0.8"/>
      </g>
     </g>
     <g id="text_17">
      <!-- 0.6 -->
      <g transform="translate(20.878125 304.834114) scale(0.1 -0.1)">
       <use xlink:href="#DejaVuSans-30"/>
       <use xlink:href="#DejaVuSans-2e" transform="translate(63.623047 0)"/>
       <use xlink:href="#DejaVuSans-36" transform="translate(95.410156 0)"/>
      </g>
     </g>
    </g>
    <g id="ytick_13">
     <g id="line2d_60">
      <path d="M 43.78125 271.252262 
L 849.26125 271.252262 
" clip-path="url(#p5fd3ee6a64)" style="fill: none; stroke: #b0b0b0; stroke-opacity: 0.3; stroke-width: 0.8; stroke-linecap: square"/>
     </g>
     <g id="line2d_61">
      <g>
       <use xlink:href="#m2b094065c9" x="43.78125" y="271.252262" style="stroke: #000000; stroke-width: 0.8"/>
      </g>
     </g>
     <g id="text_18">
      <!-- 0.7 -->
      <g transform="translate(20.878125 275.051481) scale(0.1 -0.1)">
       <defs>
        <path id="DejaVuSans-37" d="M 525 4666 
L 3525 4666 
L 3525 4397 
L 1831 0 
L 1172 0 
L 2766 4134 
L 525 4134 
L 525 4666 
z
" transform="scale(0.015625)"/>
       </defs>
       <use xlink:href="#DejaVuSans-30"/>
       <use xlink:href="#DejaVuSans-2e" transform="translate(63.623047 0)"/>
       <use xlink:href="#DejaVuSans-37" transform="translate(95.410156 0)"/>
      </g>
     </g>
    </g>
    <g id="text_19">
     <!-- Component reward -->
     <g transform="translate(14.798438 420.17302) rotate(-90) scale(0.1 -0.1)">
      <defs>
       <path id="DejaVuSans-43" d="M 4122 4306 
L 4122 3641 
Q 3803 3938 3442 4084 
Q 3081 4231 2675 4231 
Q 1875 4231 1450 3742 
Q 1025 3253 1025 2328 
Q 1025 1406 1450 917 
Q 1875 428 2675 428 
Q 3081 428 3442 575 
Q 3803 722 4122 1019 
L 4122 359 
Q 3791 134 3420 21 
Q 3050 -91 2638 -91 
Q 1578 -91 968 557 
Q 359 1206 359 2328 
Q 359 3453 968 4101 
Q 1578 4750 2638 4750 
Q 3056 4750 3426 4639 
Q 3797 4528 4122 4306 
z
" transform="scale(0.015625)"/>
      </defs>
      <use xlink:href="#DejaVuSans-43"/>
      <use xlink:href="#DejaVuSans-6f" transform="translate(69.824219 0)"/>
      <use xlink:href="#DejaVuSans-6d" transform="translate(131.005859 0)"/>
      <use xlink:href="#DejaVuSans-70" transform="translate(228.417969 0)"/>
      <use xlink:href="#DejaVuSans-6f" transform="translate(291.894531 0)"/>
      <use xlink:href="#DejaVuSans-6e" transform="translate(353.076172 0)"/>
      <use xlink:href="#DejaVuSans-65" transform="translate(416.455078 0)"/>
      <use xlink:href="#DejaVuSans-6e" transform="translate(477.978516 0)"/>
      <use xlink:href="#DejaVuSans-74" transform="translate(541.357422 0)"/>
      <use xlink:href="#DejaVuSans-20" transform="translate(580.566406 0)"/>
      <use xlink:href="#DejaVuSans-72" transform="translate(612.353516 0)"/>
      <use xlink:href="#DejaVuSans-65" transform="translate(651.216797 0)"/>
      <use xlink:href="#DejaVuSans-77" transform="translate(712.740234 0)"/>
      <use xlink:href="#DejaVuSans-61" transform="translate(794.527344 0)"/>
      <use xlink:href="#DejaVuSans-72" transform="translate(855.806641 0)"/>
      <use xlink:href="#DejaVuSans-64" transform="translate(895.169922 0)"/>
     </g>
    </g>
   </g>
   <g id="line2d_62">
    <path d="M 80.393977 453.015672 
L 104.015092 444.542513 
L 127.636206 438.789501 
L 151.25732 436.158701 
L 174.878435 431.989133 
L 198.499549 427.233839 
L 222.120663 420.80079 
L 245.741778 415.941257 
L 269.362892 409.910274 
L 292.984007 402.295848 
L 316.605121 395.490516 
L 340.226235 393.177398 
L 363.84735 388.407213 
L 387.468464 381.194852 
L 411.089578 375.421985 
L 434.710693 373.932853 
L 458.331807 372.607526 
L 481.952922 365.017919 
L 505.574036 356.375991 
L 529.19515 354.762765 
L 552.816265 351.188849 
L 576.437379 345.629424 
L 600.058493 340.283442 
L 623.679608 337.811483 
L 647.300722 336.649961 
L 670.921837 331.472746 
L 694.542951 328.593758 
L 718.164065 322.379116 
L 741.78518 318.125163 
L 765.406294 311.731824 
L 789.027408 303.377796 
L 812.648523 297.972248 
" clip-path="url(#p5fd3ee6a64)" style="fill: none; stroke: #d62728; stroke-width: 2; stroke-linecap: square"/>
   </g>
   <g id="line2d_63">
    <path d="M 80.393977 422.667169 
L 104.015092 424.230757 
L 127.636206 421.465936 
L 151.25732 419.517655 
L 174.878435 413.631118 
L 198.499549 409.94502 
L 222.120663 406.728496 
L 245.741778 401.645593 
L 269.362892 397.739105 
L 292.984007 390.472142 
L 316.605121 385.940218 
L 340.226235 383.597318 
L 363.84735 374.851151 
L 387.468464 369.609408 
L 411.089578 366.174477 
L 434.710693 363.6777 
L 458.331807 359.309581 
L 481.952922 353.665772 
L 505.574036 350.067037 
L 529.19515 345.564895 
L 552.816265 340.119637 
L 576.437379 336.545721 
L 600.058493 335.210467 
L 623.679608 329.209266 
L 647.300722 324.741871 
L 670.921837 320.825455 
L 694.542951 315.955994 
L 718.164065 311.930375 
L 741.78518 304.459898 
L 765.406294 303.705405 
L 789.027408 301.903555 
L 812.648523 298.379277 
" clip-path="url(#p5fd3ee6a64)" style="fill: none; stroke: #ff7f0e; stroke-width: 2; stroke-linecap: square"/>
   </g>
   <g id="line2d_64">
    <path d="M 80.393977 468.681337 
L 104.015092 465.732856 
L 127.636206 458.326908 
L 151.25732 449.821484 
L 174.878435 445.135187 
L 198.499549 440.214103 
L 222.120663 434.108663 
L 245.741778 427.77489 
L 269.362892 422.974922 
L 292.984007 421.262421 
L 316.605121 417.683541 
L 340.226235 413.424625 
L 363.84735 405.725814 
L 387.468464 400.886136 
L 411.089578 392.800151 
L 434.710693 385.414058 
L 458.331807 376.052384 
L 481.952922 368.706001 
L 505.574036 360.739147 
L 529.19515 354.653562 
L 552.816265 347.699317 
L 576.437379 338.422027 
L 600.058493 334.053908 
L 623.679608 327.521584 
L 647.300722 323.024406 
L 670.921837 314.863965 
L 694.542951 311.98994 
L 718.164065 310.381678 
L 741.78518 302.8566 
L 765.406294 299.5408 
L 789.027408 294.373513 
L 812.648523 285.081331 
" clip-path="url(#p5fd3ee6a64)" style="fill: none; stroke: #2ca02c; stroke-width: 2; stroke-linecap: square"/>
   </g>
   <g id="line2d_65">
    <path d="M 80.393977 437.796746 
L 104.015092 438.675334 
L 127.636206 434.242685 
L 151.25732 434.267504 
L 174.878435 432.066568 
L 198.499549 429.541993 
L 222.120663 427.576339 
L 245.741778 420.314341 
L 269.362892 414.303212 
L 292.984007 410.69455 
L 316.605121 404.986212 
L 340.226235 401.432151 
L 363.84735 396.36414 
L 387.468464 394.001384 
L 411.089578 390.407613 
L 434.710693 380.713366 
L 458.331807 377.367784 
L 481.952922 370.919844 
L 505.574036 364.725056 
L 529.19515 357.726137 
L 552.816265 353.889141 
L 576.437379 350.280479 
L 600.058493 345.500366 
L 623.679608 342.661089 
L 647.300722 336.719453 
L 670.921837 333.05619 
L 694.542951 325.764408 
L 718.164065 319.286686 
L 741.78518 310.500809 
L 765.406294 305.442725 
L 789.027408 297.92261 
L 812.648523 292.249018 
" clip-path="url(#p5fd3ee6a64)" style="fill: none; stroke: #9467bd; stroke-width: 2; stroke-linecap: square"/>
   </g>
   <g id="line2d_66">
    <path d="M 80.393977 468.532423 
L 104.015092 472.79134 
L 127.636206 472.046774 
L 151.25732 469.411011 
L 174.878435 462.242331 
L 198.499549 457.363936 
L 222.120663 451.968316 
L 245.741778 442.522257 
L 269.362892 433.026561 
L 292.984007 425.163946 
L 316.605121 420.473181 
L 340.226235 413.97064 
L 363.84735 407.90491 
L 387.468464 399.540954 
L 411.089578 392.96892 
L 434.710693 383.761122 
L 458.331807 375.814123 
L 481.952922 371.153141 
L 505.574036 364.134367 
L 529.19515 358.068638 
L 552.816265 352.380155 
L 576.437379 347.138411 
L 600.058493 341.822211 
L 623.679608 333.900031 
L 647.300722 324.032052 
L 670.921837 317.196937 
L 694.542951 310.068961 
L 718.164065 303.070042 
L 741.78518 293.286447 
L 765.406294 285.746477 
L 789.027408 277.928536 
L 812.648523 271.689074 
" clip-path="url(#p5fd3ee6a64)" style="fill: none; stroke: #17becf; stroke-width: 2; stroke-linecap: square"/>
   </g>
   <g id="patch_9">
    <path d="M 43.78125 482.846453 
L 43.78125 261.633961 
" style="fill: none; stroke: #000000; stroke-width: 0.8; stroke-linejoin: miter; stroke-linecap: square"/>
   </g>
   <g id="patch_10">
    <path d="M 849.26125 482.846453 
L 849.26125 261.633961 
" style="fill: none; stroke: #000000; stroke-width: 0.8; stroke-linejoin: miter; stroke-linecap: square"/>
   </g>
   <g id="patch_11">
    <path d="M 43.78125 482.846453 
L 849.26125 482.846453 
" style="fill: none; stroke: #000000; stroke-width: 0.8; stroke-linejoin: miter; stroke-linecap: square"/>
   </g>
   <g id="patch_12">
    <path d="M 43.78125 261.633961 
L 849.26125 261.633961 
" style="fill: none; stroke: #000000; stroke-width: 0.8; stroke-linejoin: miter; stroke-linecap: square"/>
   </g>
   <g id="legend_2">
    <g id="patch_13">
     <path d="M 522.68 477.846453 
L 842.26125 477.846453 
Q 844.26125 477.846453 844.26125 475.846453 
L 844.26125 447.212078 
Q 844.26125 445.212078 842.26125 445.212078 
L 522.68 445.212078 
Q 520.68 445.212078 520.68 447.212078 
L 520.68 475.846453 
Q 520.68 477.846453 522.68 477.846453 
z
" style="fill: #ffffff; opacity: 0.8; stroke: #cccccc; stroke-linejoin: miter"/>
    </g>
    <g id="line2d_67">
     <path d="M 524.68 453.310516 
L 534.68 453.310516 
L 544.68 453.310516 
" style="fill: none; stroke: #d62728; stroke-width: 2; stroke-linecap: square"/>
    </g>
    <g id="text_20">
     <!-- investigation -->
     <g transform="translate(552.68 456.810516) scale(0.1 -0.1)">
      <use xlink:href="#DejaVuSans-69"/>
      <use xlink:href="#DejaVuSans-6e" transform="translate(27.783203 0)"/>
      <use xlink:href="#DejaVuSans-76" transform="translate(91.162109 0)"/>
      <use xlink:href="#DejaVuSans-65" transform="translate(150.341797 0)"/>
      <use xlink:href="#DejaVuSans-73" transform="translate(211.865234 0)"/>
      <use xlink:href="#DejaVuSans-74" transform="translate(263.964844 0)"/>
      <use xlink:href="#DejaVuSans-69" transform="translate(303.173828 0)"/>
      <use xlink:href="#DejaVuSans-67" transform="translate(330.957031 0)"/>
      <use xlink:href="#DejaVuSans-61" transform="translate(394.433594 0)"/>
      <use xlink:href="#DejaVuSans-74" transform="translate(455.712891 0)"/>
      <use xlink:href="#DejaVuSans-69" transform="translate(494.921875 0)"/>
      <use xlink:href="#DejaVuSans-6f" transform="translate(522.705078 0)"/>
      <use xlink:href="#DejaVuSans-6e" transform="translate(583.886719 0)"/>
     </g>
    </g>
    <g id="line2d_68">
     <path d="M 524.68 467.988641 
L 534.68 467.988641 
L 544.68 467.988641 
" style="fill: none; stroke: #ff7f0e; stroke-width: 2; stroke-linecap: square"/>
    </g>
    <g id="text_21">
     <!-- routing -->
     <g transform="translate(552.68 471.488641) scale(0.1 -0.1)">
      <defs>
       <path id="DejaVuSans-75" d="M 544 1381 
L 544 3500 
L 1119 3500 
L 1119 1403 
Q 1119 906 1312 657 
Q 1506 409 1894 409 
Q 2359 409 2629 706 
Q 2900 1003 2900 1516 
L 2900 3500 
L 3475 3500 
L 3475 0 
L 2900 0 
L 2900 538 
Q 2691 219 2414 64 
Q 2138 -91 1772 -91 
Q 1169 -91 856 284 
Q 544 659 544 1381 
z
M 1991 3584 
L 1991 3584 
z
" transform="scale(0.015625)"/>
      </defs>
      <use xlink:href="#DejaVuSans-72"/>
      <use xlink:href="#DejaVuSans-6f" transform="translate(38.863281 0)"/>
      <use xlink:href="#DejaVuSans-75" transform="translate(100.044922 0)"/>
      <use xlink:href="#DejaVuSans-74" transform="translate(163.423828 0)"/>
      <use xlink:href="#DejaVuSans-69" transform="translate(202.632812 0)"/>
      <use xlink:href="#DejaVuSans-6e" transform="translate(230.416016 0)"/>
      <use xlink:href="#DejaVuSans-67" transform="translate(293.794922 0)"/>
     </g>
    </g>
    <g id="line2d_69">
     <path d="M 637.406563 453.310516 
L 647.406563 453.310516 
L 657.406563 453.310516 
" style="fill: none; stroke: #2ca02c; stroke-width: 2; stroke-linecap: square"/>
    </g>
    <g id="text_22">
     <!-- reply_quality -->
     <g transform="translate(665.406563 456.810516) scale(0.1 -0.1)">
      <defs>
       <path id="DejaVuSans-79" d="M 2059 -325 
Q 1816 -950 1584 -1140 
Q 1353 -1331 966 -1331 
L 506 -1331 
L 506 -850 
L 844 -850 
Q 1081 -850 1212 -737 
Q 1344 -625 1503 -206 
L 1606 56 
L 191 3500 
L 800 3500 
L 1894 763 
L 2988 3500 
L 3597 3500 
L 2059 -325 
z
" transform="scale(0.015625)"/>
       <path id="DejaVuSans-5f" d="M 3263 -1063 
L 3263 -1509 
L -63 -1509 
L -63 -1063 
L 3263 -1063 
z
" transform="scale(0.015625)"/>
       <path id="DejaVuSans-71" d="M 947 1747 
Q 947 1113 1208 752 
Q 1469 391 1925 391 
Q 2381 391 2643 752 
Q 2906 1113 2906 1747 
Q 2906 2381 2643 2742 
Q 2381 3103 1925 3103 
Q 1469 3103 1208 2742 
Q 947 2381 947 1747 
z
M 2906 525 
Q 2725 213 2448 61 
Q 2172 -91 1784 -91 
Q 1150 -91 751 415 
Q 353 922 353 1747 
Q 353 2572 751 3078 
Q 1150 3584 1784 3584 
Q 2172 3584 2448 3432 
Q 2725 3281 2906 2969 
L 2906 3500 
L 3481 3500 
L 3481 -1331 
L 2906 -1331 
L 2906 525 
z
" transform="scale(0.015625)"/>
      </defs>
      <use xlink:href="#DejaVuSans-72"/>
      <use xlink:href="#DejaVuSans-65" transform="translate(38.863281 0)"/>
      <use xlink:href="#DejaVuSans-70" transform="translate(100.386719 0)"/>
      <use xlink:href="#DejaVuSans-6c" transform="translate(163.863281 0)"/>
      <use xlink:href="#DejaVuSans-79" transform="translate(191.646484 0)"/>
      <use xlink:href="#DejaVuSans-5f" transform="translate(250.826172 0)"/>
      <use xlink:href="#DejaVuSans-71" transform="translate(300.826172 0)"/>
      <use xlink:href="#DejaVuSans-75" transform="translate(364.302734 0)"/>
      <use xlink:href="#DejaVuSans-61" transform="translate(427.681641 0)"/>
      <use xlink:href="#DejaVuSans-6c" transform="translate(488.960938 0)"/>
      <use xlink:href="#DejaVuSans-69" transform="translate(516.744141 0)"/>
      <use xlink:href="#DejaVuSans-74" transform="translate(544.527344 0)"/>
      <use xlink:href="#DejaVuSans-79" transform="translate(583.736328 0)"/>
     </g>
    </g>
    <g id="line2d_70">
     <path d="M 637.406563 468.266766 
L 647.406563 468.266766 
L 657.406563 468.266766 
" style="fill: none; stroke: #9467bd; stroke-width: 2; stroke-linecap: square"/>
    </g>
    <g id="text_23">
     <!-- groundedness -->
     <g transform="translate(665.406563 471.766766) scale(0.1 -0.1)">
      <use xlink:href="#DejaVuSans-67"/>
      <use xlink:href="#DejaVuSans-72" transform="translate(63.476562 0)"/>
      <use xlink:href="#DejaVuSans-6f" transform="translate(102.339844 0)"/>
      <use xlink:href="#DejaVuSans-75" transform="translate(163.521484 0)"/>
      <use xlink:href="#DejaVuSans-6e" transform="translate(226.900391 0)"/>
      <use xlink:href="#DejaVuSans-64" transform="translate(290.279297 0)"/>
      <use xlink:href="#DejaVuSans-65" transform="translate(353.755859 0)"/>
      <use xlink:href="#DejaVuSans-64" transform="translate(415.279297 0)"/>
      <use xlink:href="#DejaVuSans-6e" transform="translate(478.755859 0)"/>
      <use xlink:href="#DejaVuSans-65" transform="translate(542.134766 0)"/>
      <use xlink:href="#DejaVuSans-73" transform="translate(603.658203 0)"/>
      <use xlink:href="#DejaVuSans-73" transform="translate(655.757812 0)"/>
     </g>
    </g>
    <g id="line2d_71">
     <path d="M 756.194063 453.310516 
L 766.194063 453.310516 
L 776.194063 453.310516 
" style="fill: none; stroke: #17becf; stroke-width: 2; stroke-linecap: square"/>
    </g>
    <g id="text_24">
     <!-- submission -->
     <g transform="translate(784.194063 456.810516) scale(0.1 -0.1)">
      <defs>
       <path id="DejaVuSans-62" d="M 3116 1747 
Q 3116 2381 2855 2742 
Q 2594 3103 2138 3103 
Q 1681 3103 1420 2742 
Q 1159 2381 1159 1747 
Q 1159 1113 1420 752 
Q 1681 391 2138 391 
Q 2594 391 2855 752 
Q 3116 1113 3116 1747 
z
M 1159 2969 
Q 1341 3281 1617 3432 
Q 1894 3584 2278 3584 
Q 2916 3584 3314 3078 
Q 3713 2572 3713 1747 
Q 3713 922 3314 415 
Q 2916 -91 2278 -91 
Q 1894 -91 1617 61 
Q 1341 213 1159 525 
L 1159 0 
L 581 0 
L 581 4863 
L 1159 4863 
L 1159 2969 
z
" transform="scale(0.015625)"/>
      </defs>
      <use xlink:href="#DejaVuSans-73"/>
      <use xlink:href="#DejaVuSans-75" transform="translate(52.099609 0)"/>
      <use xlink:href="#DejaVuSans-62" transform="translate(115.478516 0)"/>
      <use xlink:href="#DejaVuSans-6d" transform="translate(178.955078 0)"/>
      <use xlink:href="#DejaVuSans-69" transform="translate(276.367188 0)"/>
      <use xlink:href="#DejaVuSans-73" transform="translate(304.150391 0)"/>
      <use xlink:href="#DejaVuSans-73" transform="translate(356.25 0)"/>
      <use xlink:href="#DejaVuSans-69" transform="translate(408.349609 0)"/>
      <use xlink:href="#DejaVuSans-6f" transform="translate(436.132812 0)"/>
      <use xlink:href="#DejaVuSans-6e" transform="translate(497.314453 0)"/>
     </g>
    </g>
   </g>
  </g>
  <g id="axes_3">
   <g id="patch_14">
    <path d="M 43.78125 722.162289 
L 849.26125 722.162289 
L 849.26125 500.949797 
L 43.78125 500.949797 
z
" style="fill: #ffffff"/>
   </g>
   <g id="matplotlib.axis_5">
    <g id="xtick_15">
     <g id="line2d_72">
      <path d="M 56.772863 722.162289 
L 56.772863 500.949797 
" clip-path="url(#pf427f1f068)" style="fill: none; stroke: #b0b0b0; stroke-opacity: 0.3; stroke-width: 0.8; stroke-linecap: square"/>
     </g>
     <g id="line2d_73">
      <g>
       <use xlink:href="#m3a2ddd8515" x="56.772863" y="722.162289" style="stroke: #000000; stroke-width: 0.8"/>
      </g>
     </g>
    </g>
    <g id="xtick_16">
     <g id="line2d_74">
      <path d="M 174.878435 722.162289 
L 174.878435 500.949797 
" clip-path="url(#pf427f1f068)" style="fill: none; stroke: #b0b0b0; stroke-opacity: 0.3; stroke-width: 0.8; stroke-linecap: square"/>
     </g>
     <g id="line2d_75">
      <g>
       <use xlink:href="#m3a2ddd8515" x="174.878435" y="722.162289" style="stroke: #000000; stroke-width: 0.8"/>
      </g>
     </g>
    </g>
    <g id="xtick_17">
     <g id="line2d_76">
      <path d="M 292.984007 722.162289 
L 292.984007 500.949797 
" clip-path="url(#pf427f1f068)" style="fill: none; stroke: #b0b0b0; stroke-opacity: 0.3; stroke-width: 0.8; stroke-linecap: square"/>
     </g>
     <g id="line2d_77">
      <g>
       <use xlink:href="#m3a2ddd8515" x="292.984007" y="722.162289" style="stroke: #000000; stroke-width: 0.8"/>
      </g>
     </g>
    </g>
    <g id="xtick_18">
     <g id="line2d_78">
      <path d="M 411.089578 722.162289 
L 411.089578 500.949797 
" clip-path="url(#pf427f1f068)" style="fill: none; stroke: #b0b0b0; stroke-opacity: 0.3; stroke-width: 0.8; stroke-linecap: square"/>
     </g>
     <g id="line2d_79">
      <g>
       <use xlink:href="#m3a2ddd8515" x="411.089578" y="722.162289" style="stroke: #000000; stroke-width: 0.8"/>
      </g>
     </g>
    </g>
    <g id="xtick_19">
     <g id="line2d_80">
      <path d="M 529.19515 722.162289 
L 529.19515 500.949797 
" clip-path="url(#pf427f1f068)" style="fill: none; stroke: #b0b0b0; stroke-opacity: 0.3; stroke-width: 0.8; stroke-linecap: square"/>
     </g>
     <g id="line2d_81">
      <g>
       <use xlink:href="#m3a2ddd8515" x="529.19515" y="722.162289" style="stroke: #000000; stroke-width: 0.8"/>
      </g>
     </g>
    </g>
    <g id="xtick_20">
     <g id="line2d_82">
      <path d="M 647.300722 722.162289 
L 647.300722 500.949797 
" clip-path="url(#pf427f1f068)" style="fill: none; stroke: #b0b0b0; stroke-opacity: 0.3; stroke-width: 0.8; stroke-linecap: square"/>
     </g>
     <g id="line2d_83">
      <g>
       <use xlink:href="#m3a2ddd8515" x="647.300722" y="722.162289" style="stroke: #000000; stroke-width: 0.8"/>
      </g>
     </g>
    </g>
    <g id="xtick_21">
     <g id="line2d_84">
      <path d="M 765.406294 722.162289 
L 765.406294 500.949797 
" clip-path="url(#pf427f1f068)" style="fill: none; stroke: #b0b0b0; stroke-opacity: 0.3; stroke-width: 0.8; stroke-linecap: square"/>
     </g>
     <g id="line2d_85">
      <g>
       <use xlink:href="#m3a2ddd8515" x="765.406294" y="722.162289" style="stroke: #000000; stroke-width: 0.8"/>
      </g>
     </g>
    </g>
   </g>
   <g id="matplotlib.axis_6">
    <g id="ytick_14">
     <g id="line2d_86">
      <path d="M 43.78125 686.175179 
L 849.26125 686.175179 
" clip-path="url(#pf427f1f068)" style="fill: none; stroke: #b0b0b0; stroke-opacity: 0.3; stroke-width: 0.8; stroke-linecap: square"/>
     </g>
     <g id="line2d_87">
      <g>
       <use xlink:href="#m2b094065c9" x="43.78125" y="686.175179" style="stroke: #000000; stroke-width: 0.8"/>
      </g>
     </g>
     <g id="text_25">
      <!-- 0.1 -->
      <g transform="translate(20.878125 689.974398) scale(0.1 -0.1)">
       <use xlink:href="#DejaVuSans-30"/>
       <use xlink:href="#DejaVuSans-2e" transform="translate(63.623047 0)"/>
       <use xlink:href="#DejaVuSans-31" transform="translate(95.410156 0)"/>
      </g>
     </g>
    </g>
    <g id="ytick_15">
     <g id="line2d_88">
      <path d="M 43.78125 649.235013 
L 849.26125 649.235013 
" clip-path="url(#pf427f1f068)" style="fill: none; stroke: #b0b0b0; stroke-opacity: 0.3; stroke-width: 0.8; stroke-linecap: square"/>
     </g>
     <g id="line2d_89">
      <g>
       <use xlink:href="#m2b094065c9" x="43.78125" y="649.235013" style="stroke: #000000; stroke-width: 0.8"/>
      </g>
     </g>
     <g id="text_26">
      <!-- 0.2 -->
      <g transform="translate(20.878125 653.034231) scale(0.1 -0.1)">
       <use xlink:href="#DejaVuSans-30"/>
       <use xlink:href="#DejaVuSans-2e" transform="translate(63.623047 0)"/>
       <use xlink:href="#DejaVuSans-32" transform="translate(95.410156 0)"/>
      </g>
     </g>
    </g>
    <g id="ytick_16">
     <g id="line2d_90">
      <path d="M 43.78125 612.294846 
L 849.26125 612.294846 
" clip-path="url(#pf427f1f068)" style="fill: none; stroke: #b0b0b0; stroke-opacity: 0.3; stroke-width: 0.8; stroke-linecap: square"/>
     </g>
     <g id="line2d_91">
      <g>
       <use xlink:href="#m2b094065c9" x="43.78125" y="612.294846" style="stroke: #000000; stroke-width: 0.8"/>
      </g>
     </g>
     <g id="text_27">
      <!-- 0.3 -->
      <g transform="translate(20.878125 616.094065) scale(0.1 -0.1)">
       <use xlink:href="#DejaVuSans-30"/>
       <use xlink:href="#DejaVuSans-2e" transform="translate(63.623047 0)"/>
       <use xlink:href="#DejaVuSans-33" transform="translate(95.410156 0)"/>
      </g>
     </g>
    </g>
    <g id="ytick_17">
     <g id="line2d_92">
      <path d="M 43.78125 575.35468 
L 849.26125 575.35468 
" clip-path="url(#pf427f1f068)" style="fill: none; stroke: #b0b0b0; stroke-opacity: 0.3; stroke-width: 0.8; stroke-linecap: square"/>
     </g>
     <g id="line2d_93">
      <g>
       <use xlink:href="#m2b094065c9" x="43.78125" y="575.35468" style="stroke: #000000; stroke-width: 0.8"/>
      </g>
     </g>
     <g id="text_28">
      <!-- 0.4 -->
      <g transform="translate(20.878125 579.153899) scale(0.1 -0.1)">
       <use xlink:href="#DejaVuSans-30"/>
       <use xlink:href="#DejaVuSans-2e" transform="translate(63.623047 0)"/>
       <use xlink:href="#DejaVuSans-34" transform="translate(95.410156 0)"/>
      </g>
     </g>
    </g>
    <g id="ytick_18">
     <g id="line2d_94">
      <path d="M 43.78125 538.414513 
L 849.26125 538.414513 
" clip-path="url(#pf427f1f068)" style="fill: none; stroke: #b0b0b0; stroke-opacity: 0.3; stroke-width: 0.8; stroke-linecap: square"/>
     </g>
     <g id="line2d_95">
      <g>
       <use xlink:href="#m2b094065c9" x="43.78125" y="538.414513" style="stroke: #000000; stroke-width: 0.8"/>
      </g>
     </g>
     <g id="text_29">
      <!-- 0.5 -->
      <g transform="translate(20.878125 542.213732) scale(0.1 -0.1)">
       <use xlink:href="#DejaVuSans-30"/>
       <use xlink:href="#DejaVuSans-2e" transform="translate(63.623047 0)"/>
       <use xlink:href="#DejaVuSans-35" transform="translate(95.410156 0)"/>
      </g>
     </g>
    </g>
    <g id="ytick_19">
     <g id="line2d_96">
      <path d="M 43.78125 501.474347 
L 849.26125 501.474347 
" clip-path="url(#pf427f1f068)" style="fill: none; stroke: #b0b0b0; stroke-opacity: 0.3; stroke-width: 0.8; stroke-linecap: square"/>
     </g>
     <g id="line2d_97">
      <g>
       <use xlink:href="#m2b094065c9" x="43.78125" y="501.474347" style="stroke: #000000; stroke-width: 0.8"/>
      </g>
     </g>
     <g id="text_30">
      <!-- 0.6 -->
      <g transform="translate(20.878125 505.273566) scale(0.1 -0.1)">
       <use xlink:href="#DejaVuSans-30"/>
       <use xlink:href="#DejaVuSans-2e" transform="translate(63.623047 0)"/>
       <use xlink:href="#DejaVuSans-36" transform="translate(95.410156 0)"/>
      </g>
     </g>
    </g>
    <g id="text_31">
     <!-- Penalty total (↓) -->
     <g transform="translate(14.798438 652.709949) rotate(-90) scale(0.1 -0.1)">
      <defs>
       <path id="DejaVuSans-2193" d="M 2822 -22 
L 2541 -22 
L 1309 1209 
L 1684 1584 
L 2416 853 
L 2416 4666 
L 2947 4666 
L 2947 853 
L 3672 1584 
L 4047 1209 
L 2822 -22 
z
" transform="scale(0.015625)"/>
      </defs>
      <use xlink:href="#DejaVuSans-50"/>
      <use xlink:href="#DejaVuSans-65" transform="translate(56.677734 0)"/>
      <use xlink:href="#DejaVuSans-6e" transform="translate(118.201172 0)"/>
      <use xlink:href="#DejaVuSans-61" transform="translate(181.580078 0)"/>
      <use xlink:href="#DejaVuSans-6c" transform="translate(242.859375 0)"/>
      <use xlink:href="#DejaVuSans-74" transform="translate(270.642578 0)"/>
      <use xlink:href="#DejaVuSans-79" transform="translate(309.851562 0)"/>
      <use xlink:href="#DejaVuSans-20" transform="translate(369.03125 0)"/>
      <use xlink:href="#DejaVuSans-74" transform="translate(400.818359 0)"/>
      <use xlink:href="#DejaVuSans-6f" transform="translate(440.027344 0)"/>
      <use xlink:href="#DejaVuSans-74" transform="translate(501.208984 0)"/>
      <use xlink:href="#DejaVuSans-61" transform="translate(540.417969 0)"/>
      <use xlink:href="#DejaVuSans-6c" transform="translate(601.697266 0)"/>
      <use xlink:href="#DejaVuSans-20" transform="translate(629.480469 0)"/>
      <use xlink:href="#DejaVuSans-28" transform="translate(661.267578 0)"/>
      <use xlink:href="#DejaVuSans-2193" transform="translate(700.28125 0)"/>
      <use xlink:href="#DejaVuSans-29" transform="translate(784.070312 0)"/>
     </g>
    </g>
   </g>
   <g id="line2d_98">
    <path d="M 80.393977 511.00491 
L 104.015092 537.860411 
L 127.636206 526.261199 
L 151.25732 553.559982 
L 174.878435 551.602153 
L 198.499549 567.781946 
L 222.120663 556.699896 
L 245.741778 563.829348 
L 269.362892 571.697603 
L 292.984007 586.621431 
L 316.605121 573.840133 
L 340.226235 580.674064 
L 363.84735 610.337017 
L 387.468464 604.27883 
L 411.089578 618.389974 
L 434.710693 624.817563 
L 458.331807 620.975785 
L 481.952922 635.714912 
L 505.574036 625.704127 
L 529.19515 654.221935 
L 552.816265 648.422329 
L 576.437379 655.40402 
L 600.058493 674.945368 
L 623.679608 663.641678 
L 647.300722 665.895028 
L 670.921837 676.201334 
L 694.542951 696.813947 
L 718.164065 683.330786 
L 741.78518 690.053897 
L 765.406294 692.381127 
L 789.027408 711.442253 
L 812.648523 712.107176 
" clip-path="url(#pf427f1f068)" style="fill: none; stroke: #8c564b; stroke-opacity: 0.25; stroke-width: 1.5; stroke-linecap: square"/>
   </g>
   <g id="line2d_99">
    <path d="M 80.393977 511.00491 
L 104.015092 524.432661 
L 127.636206 525.042173 
L 151.25732 532.171625 
L 174.878435 536.057731 
L 198.499549 541.3451 
L 222.120663 548.960931 
L 245.741778 553.289087 
L 269.362892 560.861821 
L 292.984007 566.372063 
L 316.605121 570.078393 
L 340.226235 572.227079 
L 363.84735 581.166599 
L 387.468464 587.90818 
L 411.089578 595.690241 
L 434.710693 602.056263 
L 458.331807 609.912206 
L 481.952922 619.08568 
L 505.574036 621.646865 
L 529.19515 629.970716 
L 552.816265 634.976108 
L 576.437379 640.073851 
L 600.058493 649.068782 
L 623.679608 653.723243 
L 647.300722 660.421726 
L 670.921837 664.08496 
L 694.542951 672.150229 
L 718.164065 676.80469 
L 741.78518 679.322778 
L 765.406294 684.112686 
L 789.027408 691.703891 
L 812.648523 697.688198 
" clip-path="url(#pf427f1f068)" style="fill: none; stroke: #8c564b; stroke-width: 2; stroke-linecap: square"/>
   </g>
   <g id="patch_15">
    <path d="M 43.78125 722.162289 
L 43.78125 500.949797 
" style="fill: none; stroke: #000000; stroke-width: 0.8; stroke-linejoin: miter; stroke-linecap: square"/>
   </g>
   <g id="patch_16">
    <path d="M 849.26125 722.162289 
L 849.26125 500.949797 
" style="fill: none; stroke: #000000; stroke-width: 0.8; stroke-linejoin: miter; stroke-linecap: square"/>
   </g>
   <g id="patch_17">
    <path d="M 43.78125 722.162289 
L 849.26125 722.162289 
" style="fill: none; stroke: #000000; stroke-width: 0.8; stroke-linejoin: miter; stroke-linecap: square"/>
   </g>
   <g id="patch_18">
    <path d="M 43.78125 500.949797 
L 849.26125 500.949797 
" style="fill: none; stroke: #000000; stroke-width: 0.8; stroke-linejoin: miter; stroke-linecap: square"/>
   </g>
   <g id="legend_3">
    <g id="patch_19">
     <path d="M 698.264375 523.627922 
L 842.26125 523.627922 
Q 844.26125 523.627922 844.26125 521.627922 
L 844.26125 507.949797 
Q 844.26125 505.949797 842.26125 505.949797 
L 698.264375 505.949797 
Q 696.264375 505.949797 696.264375 507.949797 
L 696.264375 521.627922 
Q 696.264375 523.627922 698.264375 523.627922 
z
" style="fill: #ffffff; opacity: 0.8; stroke: #cccccc; stroke-linejoin: miter"/>
    </g>
    <g id="line2d_100">
     <path d="M 700.264375 514.048234 
L 710.264375 514.048234 
L 720.264375 514.048234 
" style="fill: none; stroke: #8c564b; stroke-width: 2; stroke-linecap: square"/>
    </g>
    <g id="text_32">
     <!-- penalty total rolling(6) -->
     <g transform="translate(728.264375 517.548234) scale(0.1 -0.1)">
      <use xlink:href="#DejaVuSans-70"/>
      <use xlink:href="#DejaVuSans-65" transform="translate(63.476562 0)"/>
      <use xlink:href="#DejaVuSans-6e" transform="translate(125 0)"/>
      <use xlink:href="#DejaVuSans-61" transform="translate(188.378906 0)"/>
      <use xlink:href="#DejaVuSans-6c" transform="translate(249.658203 0)"/>
      <use xlink:href="#DejaVuSans-74" transform="translate(277.441406 0)"/>
      <use xlink:href="#DejaVuSans-79" transform="translate(316.650391 0)"/>
      <use xlink:href="#DejaVuSans-20" transform="translate(375.830078 0)"/>
      <use xlink:href="#DejaVuSans-74" transform="translate(407.617188 0)"/>
      <use xlink:href="#DejaVuSans-6f" transform="translate(446.826172 0)"/>
      <use xlink:href="#DejaVuSans-74" transform="translate(508.007812 0)"/>
      <use xlink:href="#DejaVuSans-61" transform="translate(547.216797 0)"/>
      <use xlink:href="#DejaVuSans-6c" transform="translate(608.496094 0)"/>
      <use xlink:href="#DejaVuSans-20" transform="translate(636.279297 0)"/>
      <use xlink:href="#DejaVuSans-72" transform="translate(668.066406 0)"/>
      <use xlink:href="#DejaVuSans-6f" transform="translate(706.929688 0)"/>
      <use xlink:href="#DejaVuSans-6c" transform="translate(768.111328 0)"/>
      <use xlink:href="#DejaVuSans-6c" transform="translate(795.894531 0)"/>
      <use xlink:href="#DejaVuSans-69" transform="translate(823.677734 0)"/>
      <use xlink:href="#DejaVuSans-6e" transform="translate(851.460938 0)"/>
      <use xlink:href="#DejaVuSans-67" transform="translate(914.839844 0)"/>
      <use xlink:href="#DejaVuSans-28" transform="translate(978.316406 0)"/>
      <use xlink:href="#DejaVuSans-36" transform="translate(1017.330078 0)"/>
      <use xlink:href="#DejaVuSans-29" transform="translate(1080.953125 0)"/>
     </g>
    </g>
   </g>
  </g>
  <g id="axes_4">
   <g id="patch_20">
    <path d="M 43.78125 961.478125 
L 849.26125 961.478125 
L 849.26125 740.265633 
L 43.78125 740.265633 
z
" style="fill: #ffffff"/>
   </g>
   <g id="matplotlib.axis_7">
    <g id="xtick_22">
     <g id="line2d_101">
      <path d="M 56.772863 961.478125 
L 56.772863 740.265633 
" clip-path="url(#p06969afdd5)" style="fill: none; stroke: #b0b0b0; stroke-opacity: 0.3; stroke-width: 0.8; stroke-linecap: square"/>
     </g>
     <g id="line2d_102">
      <g>
       <use xlink:href="#m3a2ddd8515" x="56.772863" y="961.478125" style="stroke: #000000; stroke-width: 0.8"/>
      </g>
     </g>
     <g id="text_33">
      <!-- 0 -->
      <g transform="translate(53.591613 976.076562) scale(0.1 -0.1)">
       <use xlink:href="#DejaVuSans-30"/>
      </g>
     </g>
    </g>
    <g id="xtick_23">
     <g id="line2d_103">
      <path d="M 174.878435 961.478125 
L 174.878435 740.265633 
" clip-path="url(#p06969afdd5)" style="fill: none; stroke: #b0b0b0; stroke-opacity: 0.3; stroke-width: 0.8; stroke-linecap: square"/>
     </g>
     <g id="line2d_104">
      <g>
       <use xlink:href="#m3a2ddd8515" x="174.878435" y="961.478125" style="stroke: #000000; stroke-width: 0.8"/>
      </g>
     </g>
     <g id="text_34">
      <!-- 5 -->
      <g transform="translate(171.697185 976.076562) scale(0.1 -0.1)">
       <use xlink:href="#DejaVuSans-35"/>
      </g>
     </g>
    </g>
    <g id="xtick_24">
     <g id="line2d_105">
      <path d="M 292.984007 961.478125 
L 292.984007 740.265633 
" clip-path="url(#p06969afdd5)" style="fill: none; stroke: #b0b0b0; stroke-opacity: 0.3; stroke-width: 0.8; stroke-linecap: square"/>
     </g>
     <g id="line2d_106">
      <g>
       <use xlink:href="#m3a2ddd8515" x="292.984007" y="961.478125" style="stroke: #000000; stroke-width: 0.8"/>
      </g>
     </g>
     <g id="text_35">
      <!-- 10 -->
      <g transform="translate(286.621507 976.076562) scale(0.1 -0.1)">
       <use xlink:href="#DejaVuSans-31"/>
       <use xlink:href="#DejaVuSans-30" transform="translate(63.623047 0)"/>
      </g>
     </g>
    </g>
    <g id="xtick_25">
     <g id="line2d_107">
      <path d="M 411.089578 961.478125 
L 411.089578 740.265633 
" clip-path="url(#p06969afdd5)" style="fill: none; stroke: #b0b0b0; stroke-opacity: 0.3; stroke-width: 0.8; stroke-linecap: square"/>
     </g>
     <g id="line2d_108">
      <g>
       <use xlink:href="#m3a2ddd8515" x="411.089578" y="961.478125" style="stroke: #000000; stroke-width: 0.8"/>
      </g>
     </g>
     <g id="text_36">
      <!-- 15 -->
      <g transform="translate(404.727078 976.076562) scale(0.1 -0.1)">
       <use xlink:href="#DejaVuSans-31"/>
       <use xlink:href="#DejaVuSans-35" transform="translate(63.623047 0)"/>
      </g>
     </g>
    </g>
    <g id="xtick_26">
     <g id="line2d_109">
      <path d="M 529.19515 961.478125 
L 529.19515 740.265633 
" clip-path="url(#p06969afdd5)" style="fill: none; stroke: #b0b0b0; stroke-opacity: 0.3; stroke-width: 0.8; stroke-linecap: square"/>
     </g>
     <g id="line2d_110">
      <g>
       <use xlink:href="#m3a2ddd8515" x="529.19515" y="961.478125" style="stroke: #000000; stroke-width: 0.8"/>
      </g>
     </g>
     <g id="text_37">
      <!-- 20 -->
      <g transform="translate(522.83265 976.076562) scale(0.1 -0.1)">
       <use xlink:href="#DejaVuSans-32"/>
       <use xlink:href="#DejaVuSans-30" transform="translate(63.623047 0)"/>
      </g>
     </g>
    </g>
    <g id="xtick_27">
     <g id="line2d_111">
      <path d="M 647.300722 961.478125 
L 647.300722 740.265633 
" clip-path="url(#p06969afdd5)" style="fill: none; stroke: #b0b0b0; stroke-opacity: 0.3; stroke-width: 0.8; stroke-linecap: square"/>
     </g>
     <g id="line2d_112">
      <g>
       <use xlink:href="#m3a2ddd8515" x="647.300722" y="961.478125" style="stroke: #000000; stroke-width: 0.8"/>
      </g>
     </g>
     <g id="text_38">
      <!-- 25 -->
      <g transform="translate(640.938222 976.076562) scale(0.1 -0.1)">
       <use xlink:href="#DejaVuSans-32"/>
       <use xlink:href="#DejaVuSans-35" transform="translate(63.623047 0)"/>
      </g>
     </g>
    </g>
    <g id="xtick_28">
     <g id="line2d_113">
      <path d="M 765.406294 961.478125 
L 765.406294 740.265633 
" clip-path="url(#p06969afdd5)" style="fill: none; stroke: #b0b0b0; stroke-opacity: 0.3; stroke-width: 0.8; stroke-linecap: square"/>
     </g>
     <g id="line2d_114">
      <g>
       <use xlink:href="#m3a2ddd8515" x="765.406294" y="961.478125" style="stroke: #000000; stroke-width: 0.8"/>
      </g>
     </g>
     <g id="text_39">
      <!-- 30 -->
      <g transform="translate(759.043794 976.076562) scale(0.1 -0.1)">
       <use xlink:href="#DejaVuSans-33"/>
       <use xlink:href="#DejaVuSans-30" transform="translate(63.623047 0)"/>
      </g>
     </g>
    </g>
    <g id="text_40">
     <!-- Episode -->
     <g transform="translate(426.88375 989.754687) scale(0.1 -0.1)">
      <defs>
       <path id="DejaVuSans-45" d="M 628 4666 
L 3578 4666 
L 3578 4134 
L 1259 4134 
L 1259 2753 
L 3481 2753 
L 3481 2222 
L 1259 2222 
L 1259 531 
L 3634 531 
L 3634 0 
L 628 0 
L 628 4666 
z
" transform="scale(0.015625)"/>
      </defs>
      <use xlink:href="#DejaVuSans-45"/>
      <use xlink:href="#DejaVuSans-70" transform="translate(63.183594 0)"/>
      <use xlink:href="#DejaVuSans-69" transform="translate(126.660156 0)"/>
      <use xlink:href="#DejaVuSans-73" transform="translate(154.443359 0)"/>
      <use xlink:href="#DejaVuSans-6f" transform="translate(206.542969 0)"/>
      <use xlink:href="#DejaVuSans-64" transform="translate(267.724609 0)"/>
      <use xlink:href="#DejaVuSans-65" transform="translate(331.201172 0)"/>
     </g>
    </g>
   </g>
   <g id="matplotlib.axis_8">
    <g id="ytick_20">
     <g id="line2d_115">
      <path d="M 43.78125 951.423012 
L 849.26125 951.423012 
" clip-path="url(#p06969afdd5)" style="fill: none; stroke: #b0b0b0; stroke-opacity: 0.3; stroke-width: 0.8; stroke-linecap: square"/>
     </g>
     <g id="line2d_116">
      <g>
       <use xlink:href="#m2b094065c9" x="43.78125" y="951.423012" style="stroke: #000000; stroke-width: 0.8"/>
      </g>
     </g>
     <g id="text_41">
      <!-- 0.0 -->
      <g transform="translate(20.878125 955.22223) scale(0.1 -0.1)">
       <use xlink:href="#DejaVuSans-30"/>
       <use xlink:href="#DejaVuSans-2e" transform="translate(63.623047 0)"/>
       <use xlink:href="#DejaVuSans-30" transform="translate(95.410156 0)"/>
      </g>
     </g>
    </g>
    <g id="ytick_21">
     <g id="line2d_117">
      <path d="M 43.78125 911.202559 
L 849.26125 911.202559 
" clip-path="url(#p06969afdd5)" style="fill: none; stroke: #b0b0b0; stroke-opacity: 0.3; stroke-width: 0.8; stroke-linecap: square"/>
     </g>
     <g id="line2d_118">
      <g>
       <use xlink:href="#m2b094065c9" x="43.78125" y="911.202559" style="stroke: #000000; stroke-width: 0.8"/>
      </g>
     </g>
     <g id="text_42">
      <!-- 0.2 -->
      <g transform="translate(20.878125 915.001777) scale(0.1 -0.1)">
       <use xlink:href="#DejaVuSans-30"/>
       <use xlink:href="#DejaVuSans-2e" transform="translate(63.623047 0)"/>
       <use xlink:href="#DejaVuSans-32" transform="translate(95.410156 0)"/>
      </g>
     </g>
    </g>
    <g id="ytick_22">
     <g id="line2d_119">
      <path d="M 43.78125 870.982105 
L 849.26125 870.982105 
" clip-path="url(#p06969afdd5)" style="fill: none; stroke: #b0b0b0; stroke-opacity: 0.3; stroke-width: 0.8; stroke-linecap: square"/>
     </g>
     <g id="line2d_120">
      <g>
       <use xlink:href="#m2b094065c9" x="43.78125" y="870.982105" style="stroke: #000000; stroke-width: 0.8"/>
      </g>
     </g>
     <g id="text_43">
      <!-- 0.4 -->
      <g transform="translate(20.878125 874.781324) scale(0.1 -0.1)">
       <use xlink:href="#DejaVuSans-30"/>
       <use xlink:href="#DejaVuSans-2e" transform="translate(63.623047 0)"/>
       <use xlink:href="#DejaVuSans-34" transform="translate(95.410156 0)"/>
      </g>
     </g>
    </g>
    <g id="ytick_23">
     <g id="line2d_121">
      <path d="M 43.78125 830.761652 
L 849.26125 830.761652 
" clip-path="url(#p06969afdd5)" style="fill: none; stroke: #b0b0b0; stroke-opacity: 0.3; stroke-width: 0.8; stroke-linecap: square"/>
     </g>
     <g id="line2d_122">
      <g>
       <use xlink:href="#m2b094065c9" x="43.78125" y="830.761652" style="stroke: #000000; stroke-width: 0.8"/>
      </g>
     </g>
     <g id="text_44">
      <!-- 0.6 -->
      <g transform="translate(20.878125 834.560871) scale(0.1 -0.1)">
       <use xlink:href="#DejaVuSans-30"/>
       <use xlink:href="#DejaVuSans-2e" transform="translate(63.623047 0)"/>
       <use xlink:href="#DejaVuSans-36" transform="translate(95.410156 0)"/>
      </g>
     </g>
    </g>
    <g id="ytick_24">
     <g id="line2d_123">
      <path d="M 43.78125 790.541199 
L 849.26125 790.541199 
" clip-path="url(#p06969afdd5)" style="fill: none; stroke: #b0b0b0; stroke-opacity: 0.3; stroke-width: 0.8; stroke-linecap: square"/>
     </g>
     <g id="line2d_124">
      <g>
       <use xlink:href="#m2b094065c9" x="43.78125" y="790.541199" style="stroke: #000000; stroke-width: 0.8"/>
      </g>
     </g>
     <g id="text_45">
      <!-- 0.8 -->
      <g transform="translate(20.878125 794.340418) scale(0.1 -0.1)">
       <use xlink:href="#DejaVuSans-30"/>
       <use xlink:href="#DejaVuSans-2e" transform="translate(63.623047 0)"/>
       <use xlink:href="#DejaVuSans-38" transform="translate(95.410156 0)"/>
      </g>
     </g>
    </g>
    <g id="ytick_25">
     <g id="line2d_125">
      <path d="M 43.78125 750.320746 
L 849.26125 750.320746 
" clip-path="url(#p06969afdd5)" style="fill: none; stroke: #b0b0b0; stroke-opacity: 0.3; stroke-width: 0.8; stroke-linecap: square"/>
     </g>
     <g id="line2d_126">
      <g>
       <use xlink:href="#m2b094065c9" x="43.78125" y="750.320746" style="stroke: #000000; stroke-width: 0.8"/>
      </g>
     </g>
     <g id="text_46">
      <!-- 1.0 -->
      <g transform="translate(20.878125 754.119965) scale(0.1 -0.1)">
       <use xlink:href="#DejaVuSans-31"/>
       <use xlink:href="#DejaVuSans-2e" transform="translate(63.623047 0)"/>
       <use xlink:href="#DejaVuSans-30" transform="translate(95.410156 0)"/>
      </g>
     </g>
    </g>
    <g id="text_47">
     <!-- Pass rate -->
     <g transform="translate(14.798438 873.680473) rotate(-90) scale(0.1 -0.1)">
      <use xlink:href="#DejaVuSans-50"/>
      <use xlink:href="#DejaVuSans-61" transform="translate(55.802734 0)"/>
      <use xlink:href="#DejaVuSans-73" transform="translate(117.082031 0)"/>
      <use xlink:href="#DejaVuSans-73" transform="translate(169.181641 0)"/>
      <use xlink:href="#DejaVuSans-20" transform="translate(221.28125 0)"/>
      <use xlink:href="#DejaVuSans-72" transform="translate(253.068359 0)"/>
      <use xlink:href="#DejaVuSans-61" transform="translate(294.181641 0)"/>
      <use xlink:href="#DejaVuSans-74" transform="translate(355.460938 0)"/>
      <use xlink:href="#DejaVuSans-65" transform="translate(394.669922 0)"/>
     </g>
    </g>
   </g>
   <g id="line2d_127">
    <path d="M 80.393977 951.423012 
L 104.015092 951.423012 
L 127.636206 951.423012 
L 151.25732 951.423012 
L 174.878435 951.423012 
L 198.499549 951.423012 
L 222.120663 951.423012 
L 245.741778 951.423012 
L 269.362892 951.423012 
L 292.984007 951.423012 
L 316.605121 951.423012 
L 340.226235 951.423012 
L 363.84735 951.423012 
L 387.468464 917.905967 
L 411.089578 884.388923 
L 434.710693 850.871879 
L 458.331807 817.354834 
L 481.952922 783.83779 
L 505.574036 750.320746 
L 529.19515 750.320746 
L 552.816265 750.320746 
L 576.437379 750.320746 
L 600.058493 750.320746 
L 623.679608 750.320746 
L 647.300722 750.320746 
L 670.921837 750.320746 
L 694.542951 750.320746 
L 718.164065 750.320746 
L 741.78518 750.320746 
L 765.406294 750.320746 
L 789.027408 750.320746 
L 812.648523 750.320746 
" clip-path="url(#p06969afdd5)" style="fill: none; stroke: #2ca02c; stroke-width: 2; stroke-linecap: square"/>
   </g>
   <g id="patch_21">
    <path d="M 43.78125 961.478125 
L 43.78125 740.265633 
" style="fill: none; stroke: #000000; stroke-width: 0.8; stroke-linejoin: miter; stroke-linecap: square"/>
   </g>
   <g id="patch_22">
    <path d="M 849.26125 961.478125 
L 849.26125 740.265633 
" style="fill: none; stroke: #000000; stroke-width: 0.8; stroke-linejoin: miter; stroke-linecap: square"/>
   </g>
   <g id="patch_23">
    <path d="M 43.78125 961.478125 
L 849.26125 961.478125 
" style="fill: none; stroke: #000000; stroke-width: 0.8; stroke-linejoin: miter; stroke-linecap: square"/>
   </g>
   <g id="patch_24">
    <path d="M 43.78125 740.265633 
L 849.26125 740.265633 
" style="fill: none; stroke: #000000; stroke-width: 0.8; stroke-linejoin: miter; stroke-linecap: square"/>
   </g>
   <g id="legend_4">
    <g id="patch_25">
     <path d="M 657.376875 956.478125 
L 842.26125 956.478125 
Q 844.26125 956.478125 844.26125 954.478125 
L 844.26125 940.8 
Q 844.26125 938.8 842.26125 938.8 
L 657.376875 938.8 
Q 655.376875 938.8 655.376875 940.8 
L 655.376875 954.478125 
Q 655.376875 956.478125 657.376875 956.478125 
z
" style="fill: #ffffff; opacity: 0.8; stroke: #cccccc; stroke-linejoin: miter"/>
    </g>
    <g id="line2d_128">
     <path d="M 659.376875 946.898437 
L 669.376875 946.898437 
L 679.376875 946.898437 
" style="fill: none; stroke: #2ca02c; stroke-width: 2; stroke-linecap: square"/>
    </g>
    <g id="text_48">
     <!-- rolling(6) pass rate (total≥0.5) -->
     <g transform="translate(687.376875 950.398437) scale(0.1 -0.1)">
      <defs>
       <path id="DejaVuSans-2265" d="M 678 3175 
L 678 3725 
L 4684 2578 
L 4684 2047 
L 678 897 
L 678 1453 
L 3681 2309 
L 678 3175 
z
M 4684 531 
L 4684 0 
L 678 0 
L 678 531 
L 4684 531 
z
" transform="scale(0.015625)"/>
      </defs>
      <use xlink:href="#DejaVuSans-72"/>
      <use xlink:href="#DejaVuSans-6f" transform="translate(38.863281 0)"/>
      <use xlink:href="#DejaVuSans-6c" transform="translate(100.044922 0)"/>
      <use xlink:href="#DejaVuSans-6c" transform="translate(127.828125 0)"/>
      <use xlink:href="#DejaVuSans-69" transform="translate(155.611328 0)"/>
      <use xlink:href="#DejaVuSans-6e" transform="translate(183.394531 0)"/>
      <use xlink:href="#DejaVuSans-67" transform="translate(246.773438 0)"/>
      <use xlink:href="#DejaVuSans-28" transform="translate(310.25 0)"/>
      <use xlink:href="#DejaVuSans-36" transform="translate(349.263672 0)"/>
      <use xlink:href="#DejaVuSans-29" transform="translate(412.886719 0)"/>
      <use xlink:href="#DejaVuSans-20" transform="translate(451.900391 0)"/>
      <use xlink:href="#DejaVuSans-70" transform="translate(483.6875 0)"/>
      <use xlink:href="#DejaVuSans-61" transform="translate(547.164062 0)"/>
      <use xlink:href="#DejaVuSans-73" transform="translate(608.443359 0)"/>
      <use xlink:href="#DejaVuSans-73" transform="translate(660.542969 0)"/>
      <use xlink:href="#DejaVuSans-20" transform="translate(712.642578 0)"/>
      <use xlink:href="#DejaVuSans-72" transform="translate(744.429688 0)"/>
      <use xlink:href="#DejaVuSans-61" transform="translate(785.542969 0)"/>
      <use xlink:href="#DejaVuSans-74" transform="translate(846.822266 0)"/>
      <use xlink:href="#DejaVuSans-65" transform="translate(886.03125 0)"/>
      <use xlink:href="#DejaVuSans-20" transform="translate(947.554688 0)"/>
      <use xlink:href="#DejaVuSans-28" transform="translate(979.341797 0)"/>
      <use xlink:href="#DejaVuSans-74" transform="translate(1018.355469 0)"/>
      <use xlink:href="#DejaVuSans-6f" transform="translate(1057.564453 0)"/>
      <use xlink:href="#DejaVuSans-74" transform="translate(1118.746094 0)"/>
      <use xlink:href="#DejaVuSans-61" transform="translate(1157.955078 0)"/>
      <use xlink:href="#DejaVuSans-6c" transform="translate(1219.234375 0)"/>
      <use xlink:href="#DejaVuSans-2265" transform="translate(1247.017578 0)"/>
      <use xlink:href="#DejaVuSans-30" transform="translate(1330.806641 0)"/>
      <use xlink:href="#DejaVuSans-2e" transform="translate(1394.429688 0)"/>
      <use xlink:href="#DejaVuSans-35" transform="translate(1426.216797 0)"/>
      <use xlink:href="#DejaVuSans-29" transform="translate(1489.839844 0)"/>
     </g>
    </g>
   </g>
  </g>
 </g>
 <defs>
  <clipPath id="p4939e6f29b">
   <rect x="43.78125" y="22.318125" width="805.48" height="221.212492"/>
  </clipPath>
  <clipPath id="p5fd3ee6a64">
   <rect x="43.78125" y="261.633961" width="805.48" height="221.212492"/>
  </clipPath>
  <clipPath id="pf427f1f068">
   <rect x="43.78125" y="500.949797" width="805.48" height="221.212492"/>
  </clipPath>
  <clipPath id="p06969afdd5">
   <rect x="43.78125" y="740.265633" width="805.48" height="221.212492"/>
  </clipPath>
 </defs>
</svg>
